<svg xmlns="http://www.w3.org/2000/svg" width="118.232" height="56.167" viewBox="0 0 118.232 56.167">
  <g id="Grupo_2487" data-name="Grupo 2487" transform="translate(-60.574 -25.405)">
    <g id="Grupo_2479" data-name="Grupo 2479" transform="translate(142.76 73.246)" opacity="0.7">
      <g id="Grupo_2478" data-name="Grupo 2478">
        <path id="Trazado_15" data-name="Trazado 15" d="M427.189,265.746a1.416,1.416,0,0,1,1.474-1.409,1.184,1.184,0,0,1,1.272,1.211,1.389,1.389,0,0,1-1.489,1.38A1.168,1.168,0,0,1,427.189,265.746Z" transform="translate(-427.189 -258.615)" fill="#fe9c1a"/>
        <path id="Trazado_16" data-name="Trazado 16" d="M453.495,246.7a6.519,6.519,0,0,1-2.514.451c-2.2,0-3.546-1.287-3.546-3.186A5.283,5.283,0,0,1,453,238.834a5.03,5.03,0,0,1,1.8.31l-.543,1.478a3.425,3.425,0,0,0-1.321-.244,3.32,3.32,0,0,0-3.305,3.361,1.75,1.75,0,0,0,1.927,1.867,4.787,4.787,0,0,0,1.863-.382Z" transform="translate(-442.896 -238.829)" fill="#fff"/>
        <path id="Trazado_17" data-name="Trazado 17" d="M489.993,242.109a4.972,4.972,0,0,1-5.069,5.03,3.259,3.259,0,0,1-3.585-3.284,4.984,4.984,0,0,1,5.065-5.043A3.267,3.267,0,0,1,489.993,242.109Zm-6.486,1.7a1.677,1.677,0,0,0,1.709,1.861c1.564,0,2.608-1.971,2.608-3.548a1.651,1.651,0,0,0-1.675-1.833C484.48,240.285,483.505,242.307,483.508,243.8Z" transform="translate(-469.2 -238.812)" fill="#fff"/>
        <path id="Trazado_18" data-name="Trazado 18" d="M524.1,246.959l1.124-5.5c.2-.954.33-1.781.433-2.471h1.816l-.19,1.386h.034a3.742,3.742,0,0,1,3.037-1.566,1.825,1.825,0,0,1,2.062,1.628,3.784,3.784,0,0,1,3.11-1.628,1.972,1.972,0,0,1,2.134,2.118,8.3,8.3,0,0,1-.147,1.363l-.963,4.666H534.51l.911-4.458a5.352,5.352,0,0,0,.123-1c0-.684-.3-1.141-1.069-1.141-.965,0-2.019,1.093-2.361,2.778l-.785,3.82H529.3l.936-4.511a4.736,4.736,0,0,0,.117-.938c0-.6-.2-1.15-1.047-1.15-.968,0-2.088,1.2-2.412,2.826l-.76,3.772Z" transform="translate(-502.373 -238.812)" fill="#fff"/>
      </g>
    </g>
    <g id="Grupo_2481" data-name="Grupo 2481" transform="translate(89.639 25.405)">
      <g id="Grupo_2480" data-name="Grupo 2480" transform="translate(17.051)">
        <path id="Trazado_19" data-name="Trazado 19" d="M293.143,34.393a.069.069,0,0,1,0-.023.146.146,0,0,0,0-.049.1.1,0,0,1,0-.024.124.124,0,0,0-.006-.058c0-.007-.007-.02-.007-.027a.146.146,0,0,0-.005-.049c0-.005,0-.012,0-.019,0-.024-.015-.043-.018-.067,0-.007,0-.013,0-.019a.588.588,0,0,0-.062-.135c0-.005,0-.011-.008-.011-.009-.022-.027-.042-.035-.06a.044.044,0,0,1-.012-.012c-.012-.014-.021-.029-.033-.041l-.018-.02a.607.607,0,0,0-.041-.046c-.006-.007-.012-.008-.018-.015s-.023-.019-.038-.033-.012-.008-.023-.015-.007-.007-.012-.008l-11.192-8.1a.819.819,0,0,0-.81-.084l-12.6,5.639-.02.008h-.007c-.011.007-.031.015-.044.022a.01.01,0,0,0-.008.005.164.164,0,0,0-.035.024l-.007.007c-.015.011-.026.015-.041.026l-.005,0c-.015.012-.027.017-.033.027a.061.061,0,0,0-.015.011c-.005.012-.02.018-.026.028s-.01,0-.012.011-.02.015-.03.027-.008.011-.013.011a.217.217,0,0,1-.022.029.034.034,0,0,1-.011.016.253.253,0,0,0-.023.028c0,.006-.007.011-.007.011a.205.205,0,0,0-.02.029s-.005.009-.005.016a.07.07,0,0,0-.018.03c0,.006-.006.011-.006.016s-.009.017-.019.028-.008.013-.008.019a.107.107,0,0,1-.015.034.031.031,0,0,1-.005.019.137.137,0,0,0-.009.034.038.038,0,0,0,0,.017.152.152,0,0,0-.011.037c0,.005,0,.011,0,.017a.053.053,0,0,1-.008.034.071.071,0,0,1,0,.024.111.111,0,0,1,0,.03h0l-1.418,13.75a.811.811,0,0,0,.335.741l11.2,8.1a.006.006,0,0,1,0,.008.646.646,0,0,0,.084.051h.007c.028.016.056.023.081.041a.148.148,0,0,1,.025.007.328.328,0,0,0,.071.019.029.029,0,0,1,.023.009.5.5,0,0,0,.1.015.756.756,0,0,0,.1.005c.007,0,.019,0,.022-.005.026,0,.053,0,.074,0s.017-.005.023,0a.356.356,0,0,0,.091-.023h0c.032-.008.065-.024.094-.033,0,0,.009,0,.009-.006l12.618-5.645a.809.809,0,0,0,.477-.657l1.42-13.762A.014.014,0,0,1,293.143,34.393Zm-12.105-7.244,9.679,7.007-4.538,2.033L276.6,29.14Zm-3.4,25.084-9.682-7.007,1.226-11.884,9.681,7.007-1.225,11.884Zm2.179-13.2-9.682-7,4.767-2.127,9.572,7.045Zm10.341,8.485L279.246,52.4l1.229-11.884,5.945-2.652a.786.786,0,0,0,.1-.056l4.866-2.175-1.229,11.884Z" transform="translate(-266.289 -25.405)" fill="#fe9c1a"/>
      </g>
      <path id="Trazado_20" data-name="Trazado 20" d="M201.436,52.078h10.477a1,1,0,1,0,0-2.009H201.436a1,1,0,0,0,0,2.009Z" transform="translate(-198.145 -44.54)" fill="#fe9c1a"/>
      <path id="Trazado_21" data-name="Trazado 21" d="M201.711,90.813H191.236a1,1,0,1,0,0,2.008h10.476a1,1,0,1,0,0-2.008Z" transform="translate(-190.229 -76.15)" fill="#fe9c1a"/>
      <path id="Trazado_22" data-name="Trazado 22" d="M221.24,71.188a1,1,0,0,0-1-1.005h-6.265a1,1,0,1,0,0,2.005h6.265A1,1,0,0,0,221.24,71.188Z" transform="translate(-207.871 -60.145)" fill="#fe9c1a"/>
      <path id="Trazado_23" data-name="Trazado 23" d="M220.694,110.928H217.35a1,1,0,0,0,0,2.006h3.344a1,1,0,1,0,0-2.006Z" transform="translate(-210.493 -91.756)" fill="#fe9c1a"/>
    </g>
    <g id="Grupo_2482" data-name="Grupo 2482" transform="translate(87.237 55.214)">
      <path id="Trazado_24" data-name="Trazado 24" d="M179.511,187.484l2.4-11.517c.275-1.342.572-3.215.724-4.37h3.278l-.224,1.648h.051a5.178,5.178,0,0,1,3.989-1.9c2.691,0,4.006,1.972,4.006,4.288a7.294,7.294,0,0,1-7.206,7.532,5.145,5.145,0,0,1-2.309-.47h-.056l-1.005,4.791Zm5.228-7.384a2.542,2.542,0,0,0,1.667.537c1.957,0,3.5-2.528,3.5-4.75a1.625,1.625,0,0,0-1.612-1.842c-1.371,0-2.646,1.39-3.092,3.609Z" transform="translate(-179.511 -168.436)" fill="#fff"/>
      <path id="Trazado_25" data-name="Trazado 25" d="M257.06,182.909c.029-.659.1-1.434.163-2.239h-.061a4.755,4.755,0,0,1-4.184,2.493,3.658,3.658,0,0,1-3.765-3.938c0-3.809,2.788-7.882,8.906-7.882a15.908,15.908,0,0,1,4.111.568l-1.311,5.913a25.48,25.48,0,0,0-.5,5.085Zm1.061-8.94a5.054,5.054,0,0,0-1-.1c-2.368,0-4.089,2.635-4.093,4.736,0,1.111.494,1.874,1.5,1.874,1.092,0,2.449-1.134,3.016-3.9Z" transform="translate(-233.588 -168.436)" fill="#fff"/>
      <path id="Trazado_26" data-name="Trazado 26" d="M318.658,187.484l1.512-6.22h-.051a4.757,4.757,0,0,1-3.843,1.9c-2.287,0-3.834-1.715-3.834-4.27,0-3.617,2.733-7.55,8.46-7.55a18.473,18.473,0,0,1,4.6.669l-3.179,15.472Zm2.807-13.346a3.428,3.428,0,0,0-1.424-.244c-2.251,0-3.794,2.451-3.8,4.573,0,1.309.642,2.015,1.562,2.015,1.276,0,2.578-1.249,3.019-3.294Z" transform="translate(-282.642 -168.436)" fill="#fff"/>
      <path id="Trazado_27" data-name="Trazado 27" d="M390.633,172.477,389.05,180.1c-.309,1.432-.5,2.67-.667,3.684h-3.236l.23-1.839-.051-.009a5.584,5.584,0,0,1-4.282,2.1,2.855,2.855,0,0,1-3.194-3.163,10.188,10.188,0,0,1,.249-2.084l1.319-6.318h3.66l-1.26,6.055a8.223,8.223,0,0,0-.187,1.5,1.151,1.151,0,0,0,1.254,1.305c1.236,0,2.524-1.359,3-3.613l1.09-5.243Z" transform="translate(-333.386 -169.316)" fill="#fff"/>
      <path id="Trazado_28" data-name="Trazado 28" d="M450.149,182.26a11.778,11.778,0,0,1-4.648.892c-3.555,0-5.378-1.829-5.378-4.782a7.1,7.1,0,0,1,7.238-7.027c2.525,0,4.328,1.29,4.333,3.394,0,2.871-3.086,3.922-8.065,3.8a2.185,2.185,0,0,0,.394,1.163,3.008,3.008,0,0,0,2.379.865,8.519,8.519,0,0,0,3.489-.715Zm-3.237-8.479a3.008,3.008,0,0,0-2.928,2.325c2.842.027,4.273-.332,4.273-1.367C448.258,174.175,447.741,173.781,446.912,173.781Z" transform="translate(-381.7 -168.436)" fill="#fff"/>
      <path id="Trazado_29" data-name="Trazado 29" d="M504.868,158.376l-.648,3.161h2.653l-.543,2.538h-2.658l-.834,3.835a7.373,7.373,0,0,0-.207,1.434c0,.553.265.948,1.062.948a8.377,8.377,0,0,0,1-.047l-.421,2.6a7.883,7.883,0,0,1-2.16.251c-2.2,0-3.239-1.019-3.239-2.433a9.3,9.3,0,0,1,.263-2.1l.962-4.5h-1.591l.526-2.538h1.6l.494-2.378Z" transform="translate(-426.999 -158.376)" fill="#fff"/>
      <path id="Trazado_30" data-name="Trazado 30" d="M546.392,182.26a11.779,11.779,0,0,1-4.648.892c-3.555,0-5.378-1.829-5.378-4.782a7.1,7.1,0,0,1,7.238-7.027c2.525,0,4.328,1.29,4.333,3.394,0,2.871-3.086,3.922-8.065,3.8a2.186,2.186,0,0,0,.394,1.163,3.008,3.008,0,0,0,2.379.865,8.518,8.518,0,0,0,3.489-.715Zm-3.237-8.479a3.007,3.007,0,0,0-2.928,2.325c2.841.027,4.273-.332,4.273-1.367C544.5,174.175,543.984,173.781,543.155,173.781Z" transform="translate(-456.368 -168.436)" fill="#fff"/>
    </g>
    <g id="Grupo_2484" data-name="Grupo 2484" transform="translate(60.574 53.723)">
      <g id="Grupo_2483" data-name="Grupo 2483" transform="translate(0 4.431)" opacity="0.7">
        <path id="Trazado_31" data-name="Trazado 31" d="M60.574,183l1.586-7.761c.284-1.347.466-2.516.612-3.49h2.565l-.268,1.957h.048a5.283,5.283,0,0,1,4.288-2.212c1.932,0,2.814,1.116,2.912,2.3a5.342,5.342,0,0,1,4.391-2.3,2.785,2.785,0,0,1,3.013,2.991,11.673,11.673,0,0,1-.208,1.925L78.153,183H75.277l1.286-6.3a7.562,7.562,0,0,0,.174-1.412c0-.967-.428-1.611-1.51-1.611-1.363,0-2.851,1.543-3.334,3.924L70.784,183H67.922l1.321-6.371a6.714,6.714,0,0,0,.165-1.324c0-.848-.281-1.624-1.478-1.624-1.366,0-2.949,1.7-3.406,3.991L63.45,183Z" transform="translate(-60.574 -171.493)" fill="#fff"/>
        <path id="Trazado_32" data-name="Trazado 32" d="M153.881,183.878l2.357-11.251h2.96l-2.357,11.251Z" transform="translate(-132.964 -172.373)" fill="#fff"/>
      </g>
      <path id="Trazado_33" data-name="Trazado 33" d="M166.466,153.347a1.687,1.687,0,0,1,1.779-1.62,1.438,1.438,0,0,1,1.576,1.442,1.681,1.681,0,0,1-1.832,1.611A1.405,1.405,0,0,1,166.466,153.347Z" transform="translate(-142.727 -151.727)" fill="#fe9c1a"/>
    </g>
  </g>
</svg>
