<svg id="Grupo_4791" data-name="Grupo 4791" xmlns="http://www.w3.org/2000/svg" xmlns:xlink="http://www.w3.org/1999/xlink" width="266" height="158" viewBox="0 0 266 158">
  <defs>
    <clipPath id="clip-path">
      <rect id="Rect치ngulo_4835" data-name="Rect치ngulo 4835" width="266" height="158" fill="#fff"/>
    </clipPath>
  </defs>
  <g id="Enmascarar_grupo_101" data-name="Enmascarar grupo 101" clip-path="url(#clip-path)">
    <rect id="Rect치ngulo_4370" data-name="Rect치ngulo 4370" width="296" height="214" rx="30" transform="matrix(0.998, 0.07, -0.07, 0.998, -31.885, -84.063)" fill="#353a3d"/>
  </g>
  <g id="Grupo_2485" data-name="Grupo 2485" transform="translate(51.999 25.643)">
    <g id="Grupo_2479" data-name="Grupo 2479" transform="translate(102.879 59.886)" opacity="0.7">
      <g id="Grupo_2478" data-name="Grupo 2478">
        <path id="Trazado_15" data-name="Trazado 15" d="M427.189,266.1a1.772,1.772,0,0,1,1.845-1.764,1.482,1.482,0,0,1,1.592,1.515,1.739,1.739,0,0,1-1.864,1.728A1.462,1.462,0,0,1,427.189,266.1Z" transform="translate(-427.189 -257.174)" fill="#fff"/>
        <path id="Trazado_16" data-name="Trazado 16" d="M455.02,248.676a8.161,8.161,0,0,1-3.147.565c-2.757,0-4.438-1.612-4.438-3.989,0-3.477,2.895-6.418,6.965-6.418a6.3,6.3,0,0,1,2.249.389l-.68,1.85a4.287,4.287,0,0,0-1.653-.305,4.155,4.155,0,0,0-4.138,4.207,2.19,2.19,0,0,0,2.412,2.337,5.992,5.992,0,0,0,2.333-.478Z" transform="translate(-441.754 -238.828)" fill="#fff"/>
        <path id="Trazado_17" data-name="Trazado 17" d="M492.172,242.939a6.224,6.224,0,0,1-6.345,6.3c-2.771,0-4.488-1.735-4.488-4.11a6.239,6.239,0,0,1,6.341-6.313C490.633,238.812,492.172,240.736,492.172,242.939Zm-8.119,2.123a2.1,2.1,0,0,0,2.139,2.33c1.958,0,3.264-2.467,3.264-4.441a2.067,2.067,0,0,0-2.1-2.295C485.271,240.656,484.051,243.187,484.054,245.062Z" transform="translate(-466.144 -238.812)" fill="#fff"/>
        <path id="Trazado_18" data-name="Trazado 18" d="M524.1,249.01l1.406-6.879c.252-1.194.413-2.23.542-3.093h2.274l-.238,1.735h.043a4.684,4.684,0,0,1,3.8-1.961,2.284,2.284,0,0,1,2.581,2.038,4.737,4.737,0,0,1,3.892-2.038,2.469,2.469,0,0,1,2.671,2.651,10.393,10.393,0,0,1-.184,1.706l-1.206,5.841h-2.55l1.14-5.58a6.705,6.705,0,0,0,.154-1.251c0-.857-.379-1.428-1.339-1.428-1.208,0-2.527,1.368-2.956,3.478l-.982,4.781h-2.537l1.172-5.646a5.922,5.922,0,0,0,.147-1.174c0-.752-.249-1.439-1.311-1.439-1.211,0-2.614,1.508-3.019,3.538l-.952,4.722Z" transform="translate(-496.904 -238.812)" fill="#fff"/>
      </g>
    </g>
    <g id="Grupo_2481" data-name="Grupo 2481" transform="translate(36.384)">
      <g id="Grupo_2480" data-name="Grupo 2480" transform="translate(21.344)">
        <path id="Trazado_19" data-name="Trazado 19" d="M299.9,36.656a.086.086,0,0,1,0-.029.182.182,0,0,0,0-.061.123.123,0,0,1,0-.03.156.156,0,0,0-.007-.073c0-.008-.008-.026-.008-.034a.182.182,0,0,0-.006-.061c0-.007,0-.015,0-.024,0-.031-.019-.054-.022-.083,0-.008,0-.017,0-.024a.734.734,0,0,0-.078-.168c0-.006,0-.013-.01-.013-.012-.027-.034-.053-.044-.075a.055.055,0,0,1-.015-.015c-.015-.017-.026-.036-.041-.051l-.022-.026a.76.76,0,0,0-.051-.058c-.007-.009-.015-.01-.022-.019s-.029-.024-.048-.041-.015-.01-.029-.018-.008-.009-.015-.01L285.471,25.6a1.026,1.026,0,0,0-1.014-.105l-15.769,7.059-.025.01h-.008c-.014.008-.039.019-.055.027a.012.012,0,0,0-.01.006.2.2,0,0,0-.044.031l-.008.009c-.019.013-.032.019-.051.032l-.007.005c-.019.015-.034.022-.041.034a.077.077,0,0,0-.019.013c-.007.015-.025.022-.032.036s-.012.005-.015.014-.026.019-.037.034-.01.013-.017.013a.278.278,0,0,1-.027.036.043.043,0,0,1-.014.02.319.319,0,0,0-.029.036c0,.007-.008.013-.008.013a.262.262,0,0,0-.025.036c0,.005-.007.012-.007.02a.088.088,0,0,0-.022.037c0,.007-.007.013-.007.02s-.012.022-.024.036-.01.017-.01.024a.133.133,0,0,1-.019.042.038.038,0,0,1-.007.024.177.177,0,0,0-.012.042.047.047,0,0,0,0,.022.192.192,0,0,0-.014.046c0,.006-.005.013-.005.022a.067.067,0,0,1-.01.042.088.088,0,0,1,0,.031.139.139,0,0,1,0,.037h0l-1.775,17.212a1.015,1.015,0,0,0,.419.927l14.022,10.14a.008.008,0,0,1,0,.01.809.809,0,0,0,.105.064h.009c.035.02.07.029.1.051a.186.186,0,0,1,.031.009.41.41,0,0,0,.088.024.037.037,0,0,1,.029.012.625.625,0,0,0,.12.019.944.944,0,0,0,.121.007c.009,0,.024,0,.027-.007.032,0,.066,0,.092,0,.01,0,.022-.007.029,0a.445.445,0,0,0,.114-.029l0,0c.041-.01.081-.031.117-.041,0,0,.012,0,.012-.007l15.794-7.066a1.012,1.012,0,0,0,.6-.822l1.778-17.227A.017.017,0,0,1,299.9,36.656Zm-15.153-9.068,12.117,8.771-5.68,2.545-12-8.823Zm-4.262,31.4L268.37,50.218,269.9,35.342l12.118,8.771-1.533,14.876Zm2.727-16.524L271.1,33.7l5.967-2.663,11.982,8.819Zm12.945,10.622L282.508,59.2l1.538-14.876L291.488,41a.981.981,0,0,0,.129-.07l6.091-2.722-1.539,14.876Z" transform="translate(-266.289 -25.405)" fill="#ee7000"/>
      </g>
      <path id="Trazado_20" data-name="Trazado 20" d="M201.689,52.584H214.8a1.257,1.257,0,1,0,0-2.515H201.689a1.257,1.257,0,0,0,0,2.515Z" transform="translate(-197.569 -43.148)" fill="#ee7000"/>
      <path id="Trazado_21" data-name="Trazado 21" d="M204.6,90.813H191.489a1.257,1.257,0,1,0,0,2.513H204.6a1.257,1.257,0,1,0,0-2.513Z" transform="translate(-190.229 -72.458)" fill="#ee7000"/>
      <path id="Trazado_22" data-name="Trazado 22" d="M223.323,71.441a1.256,1.256,0,0,0-1.256-1.258h-7.842a1.255,1.255,0,1,0,0,2.51h7.842A1.254,1.254,0,0,0,223.323,71.441Z" transform="translate(-206.588 -57.617)" fill="#ee7000"/>
      <path id="Trazado_23" data-name="Trazado 23" d="M221.788,110.928H217.6a1.256,1.256,0,0,0,0,2.511h4.186a1.256,1.256,0,1,0,0-2.511Z" transform="translate(-209.019 -86.929)" fill="#ee7000"/>
    </g>
    <g id="Grupo_2482" data-name="Grupo 2482" transform="translate(33.376 37.314)">
      <path id="Trazado_24" data-name="Trazado 24" d="M179.511,191.548l3.008-14.417c.344-1.679.716-4.024.906-5.47h4.1l-.28,2.063h.063a6.481,6.481,0,0,1,4.993-2.381c3.368,0,5.014,2.468,5.014,5.368,0,4.915-3.6,9.428-9.02,9.428a6.441,6.441,0,0,1-2.89-.588h-.07l-1.258,6Zm6.544-9.243a3.181,3.181,0,0,0,2.087.672c2.45,0,4.377-3.165,4.377-5.946a2.034,2.034,0,0,0-2.019-2.306c-1.716,0-3.313,1.74-3.87,4.517Z" transform="translate(-179.511 -167.704)" fill="#fff"/>
      <path id="Trazado_25" data-name="Trazado 25" d="M259.036,185.821c.036-.825.121-1.795.2-2.8h-.076a5.953,5.953,0,0,1-5.237,3.121,4.579,4.579,0,0,1-4.713-4.929c0-4.769,3.49-9.867,11.148-9.867a19.911,19.911,0,0,1,5.147.711l-1.64,7.4a31.894,31.894,0,0,0-.624,6.366Zm1.328-11.191a6.327,6.327,0,0,0-1.253-.12c-2.964,0-5.119,3.3-5.124,5.929,0,1.391.618,2.346,1.882,2.346,1.367,0,3.065-1.419,3.775-4.885Z" transform="translate(-229.653 -167.704)" fill="#fff"/>
      <path id="Trazado_26" data-name="Trazado 26" d="M320.223,191.548l1.892-7.786h-.064a5.955,5.955,0,0,1-4.811,2.377c-2.862,0-4.8-2.147-4.8-5.345,0-4.528,3.421-9.45,10.59-9.45a23.124,23.124,0,0,1,5.758.838l-3.979,19.367Zm3.514-16.706a4.29,4.29,0,0,0-1.783-.305c-2.818,0-4.749,3.068-4.755,5.724,0,1.639.8,2.523,1.955,2.523,1.6,0,3.227-1.563,3.779-4.123Z" transform="translate(-275.139 -167.704)" fill="#fff"/>
      <path id="Trazado_27" data-name="Trazado 27" d="M393.852,172.477l-1.982,9.548c-.387,1.792-.63,3.343-.835,4.611h-4.05l.288-2.3-.064-.011a6.99,6.99,0,0,1-5.361,2.632c-2.491,0-4-1.286-4-3.96a12.753,12.753,0,0,1,.311-2.609l1.652-7.909h4.582l-1.577,7.58a10.291,10.291,0,0,0-.234,1.872,1.441,1.441,0,0,0,1.57,1.634c1.548,0,3.16-1.7,3.753-4.522l1.364-6.564Z" transform="translate(-322.192 -168.52)" fill="#fff"/>
      <path id="Trazado_28" data-name="Trazado 28" d="M452.673,185.008a14.743,14.743,0,0,1-5.818,1.116c-4.45,0-6.732-2.289-6.732-5.986a8.884,8.884,0,0,1,9.06-8.8c3.161,0,5.418,1.615,5.424,4.249,0,3.593-3.864,4.91-10.1,4.759a2.735,2.735,0,0,0,.494,1.456,3.765,3.765,0,0,0,2.978,1.083,10.664,10.664,0,0,0,4.367-.9Zm-4.052-10.614a3.765,3.765,0,0,0-3.665,2.911c3.557.034,5.349-.416,5.349-1.711C450.306,174.888,449.659,174.395,448.622,174.395Z" transform="translate(-366.99 -167.704)" fill="#fff"/>
      <path id="Trazado_29" data-name="Trazado 29" d="M506.468,158.376l-.811,3.957h3.321l-.68,3.177h-3.327l-1.044,4.8a9.228,9.228,0,0,0-.259,1.795c0,.692.332,1.187,1.329,1.187a10.49,10.49,0,0,0,1.258-.059l-.527,3.26a9.868,9.868,0,0,1-2.7.314c-2.757,0-4.055-1.276-4.055-3.046a11.634,11.634,0,0,1,.33-2.625l1.2-5.627h-1.992l.659-3.177h2l.618-2.977Z" transform="translate(-408.994 -158.376)" fill="#fff"/>
      <path id="Trazado_30" data-name="Trazado 30" d="M548.916,185.008a14.745,14.745,0,0,1-5.818,1.116c-4.45,0-6.732-2.289-6.732-5.986a8.884,8.884,0,0,1,9.06-8.8c3.161,0,5.418,1.615,5.424,4.249,0,3.593-3.863,4.91-10.1,4.759a2.735,2.735,0,0,0,.494,1.456,3.765,3.765,0,0,0,2.978,1.083,10.664,10.664,0,0,0,4.367-.9Zm-4.052-10.614a3.765,3.765,0,0,0-3.665,2.911c3.557.034,5.349-.416,5.349-1.711C546.549,174.888,545.9,174.395,544.865,174.395Z" transform="translate(-436.226 -167.704)" fill="#fff"/>
    </g>
    <g id="Grupo_2484" data-name="Grupo 2484" transform="translate(0 35.448)">
      <g id="Grupo_2483" data-name="Grupo 2483" transform="translate(0 5.547)" opacity="0.7">
        <path id="Trazado_31" data-name="Trazado 31" d="M60.574,185.9l1.986-9.715c.356-1.686.583-3.149.766-4.369h3.211l-.336,2.45h.06a6.613,6.613,0,0,1,5.368-2.769c2.418,0,3.523,1.4,3.645,2.877a6.687,6.687,0,0,1,5.5-2.877,3.487,3.487,0,0,1,3.772,3.744,14.611,14.611,0,0,1-.26,2.409l-1.7,8.25h-3.6l1.61-7.881a9.465,9.465,0,0,0,.217-1.767c0-1.21-.536-2.017-1.89-2.017-1.706,0-3.569,1.932-4.174,4.912L73.354,185.9H69.772l1.654-7.975a8.4,8.4,0,0,0,.207-1.658c0-1.062-.351-2.033-1.851-2.033-1.71,0-3.692,2.129-4.263,5L64.175,185.9Z" transform="translate(-60.574 -171.493)" fill="#fff"/>
        <path id="Trazado_32" data-name="Trazado 32" d="M153.881,186.711l2.95-14.084h3.7l-2.95,14.084Z" transform="translate(-127.697 -172.309)" fill="#fff"/>
      </g>
      <path id="Trazado_33" data-name="Trazado 33" d="M166.466,153.755a2.111,2.111,0,0,1,2.227-2.028,1.8,1.8,0,0,1,1.973,1.806,2.1,2.1,0,0,1-2.294,2.017A1.759,1.759,0,0,1,166.466,153.755Z" transform="translate(-136.751 -151.727)" fill="#ee7000"/>
    </g>
  </g>
</svg>
