<svg xmlns="http://www.w3.org/2000/svg" width="253.982" height="58.002" viewBox="0 0 253.982 58.002">
  <g id="Unión_1" data-name="Unión 1" transform="translate(-19550.998 -21614)" fill="#fffde8">
    <path d="M 19787 21671.501953125 L 19559 21671.501953125 C 19554.86328125 21671.501953125 19551.498046875 21668.13671875 19551.498046875 21664 L 19551.498046875 21622 C 19551.498046875 21617.865234375 19554.86328125 21614.5 19559 21614.5 L 19787 21614.5 C 19791.134765625 21614.5 19794.5 21617.865234375 19794.5 21622 L 19794.5 21647.025390625 L 19794.5 21647.314453125 L 19794.75 21647.458984375 L 19803.224609375 21652.33203125 C 19804.009765625 21652.783203125 19804.478515625 21653.591796875 19804.48046875 21654.49609375 C 19804.482421875 21655.404296875 19804.01171875 21656.216796875 19803.224609375 21656.669921875 L 19794.75 21661.54296875 L 19794.5 21661.6875 L 19794.5 21661.9765625 L 19794.5 21664 C 19794.5 21668.13671875 19791.134765625 21671.501953125 19787 21671.501953125 Z" stroke="none"/>
    <path d="M 19787 21671.001953125 C 19790.859375 21671.001953125 19794 21667.861328125 19794 21664 L 19794 21661.3984375 L 19794.501953125 21661.109375 L 19802.974609375 21656.236328125 C 19803.60546875 21655.873046875 19803.98046875 21655.22265625 19803.98046875 21654.49609375 C 19803.98046875 21653.7734375 19803.60546875 21653.125 19802.9765625 21652.765625 L 19794 21647.603515625 L 19794 21622 C 19794 21618.140625 19790.859375 21615 19787 21615 L 19559 21615 C 19555.138671875 21615 19551.998046875 21618.140625 19551.998046875 21622 L 19551.998046875 21664 C 19551.998046875 21667.861328125 19555.138671875 21671.001953125 19559 21671.001953125 L 19787 21671.001953125 M 19787 21672.001953125 L 19559 21672.001953125 C 19554.58203125 21672.001953125 19550.998046875 21668.416015625 19550.998046875 21664 L 19550.998046875 21622 C 19550.998046875 21617.583984375 19554.58203125 21614 19559 21614 L 19787 21614 C 19791.416015625 21614 19795 21617.583984375 19795 21622 L 19795 21647.025390625 L 19803.474609375 21651.8984375 C 19805.482421875 21653.05078125 19805.482421875 21655.9453125 19803.474609375 21657.103515625 L 19795 21661.9765625 L 19795 21664 C 19795 21668.416015625 19791.416015625 21672.001953125 19787 21672.001953125 Z" stroke="none" fill="#ff9c19"/>
  </g>
</svg>
