<svg xmlns="http://www.w3.org/2000/svg" width="53.273" height="53.27" viewBox="0 0 53.273 53.27"><defs><style>.a{fill:#353a3d;}</style></defs><g transform="translate(0 -0.001)"><path class="a" d="M26.636,0A26.635,26.635,0,1,0,53.273,26.636,26.637,26.637,0,0,0,26.636,0Zm0,7.964a8.81,8.81,0,1,1-8.809,8.81A8.811,8.811,0,0,1,26.636,7.965ZM26.63,46.307A19.548,19.548,0,0,1,13.9,41.613a3.754,3.754,0,0,1-1.317-2.854,8.885,8.885,0,0,1,8.928-8.883H31.763a8.872,8.872,0,0,1,8.914,8.883,3.745,3.745,0,0,1-1.316,2.852A19.542,19.542,0,0,1,26.63,46.307Z" transform="translate(0 0)"/></g></svg>