<svg width="20" height="20" viewBox="0 0 20 20" fill="#353A3D" xmlns="http://www.w3.org/2000/svg">
<path d="M10 0C4.47657 0 0 4.47522 0 10C0 15.5221 4.47657 19.9993 10 19.9993C15.5234 19.9993 20 15.5221 20 10C19.9993 4.47522 15.5228 0 10 0ZM10 18.3681C5.37649 18.3681 1.62988 14.6222 1.62988 9.99932C1.62988 5.37581 5.37649 1.62852 10 1.62852C14.6222 1.62852 18.3688 5.37649 18.3688 9.99932C18.3688 14.6222 14.6222 18.3681 10 18.3681Z" fill="#575757"/>
<path d="M9.74139 13.0938C8.83537 13.0938 8.19141 13.7377 8.19141 14.6783C8.19141 15.5829 8.81845 16.2621 9.74139 16.2621C10.6988 16.2621 11.3082 15.5829 11.3082 14.6783C11.29 13.7377 10.6799 13.0938 9.74139 13.0938Z" fill="#575757"/>
<path d="M9.98313 4.125C8.74803 4.125 7.72148 4.47237 7.07617 4.83803L7.66867 6.73673C8.121 6.42389 8.81777 6.21398 9.39199 6.21398C10.2621 6.23226 10.6643 6.65005 10.6643 7.2588C10.6643 7.83437 10.2106 8.40791 9.65269 9.08776C8.86991 10.0114 8.57333 10.9167 8.62614 11.8044L8.64307 12.2574H10.9589V11.9439C10.9419 11.1598 11.2209 10.48 11.8466 9.76693C12.5095 9.03562 13.3437 8.16482 13.3437 6.84101C13.3437 5.39531 12.2833 4.125 9.98313 4.125Z" fill="#575757"/>
</svg>
