<svg xmlns="http://www.w3.org/2000/svg" xmlns:xlink="http://www.w3.org/1999/xlink" width="75.565" height="75.566" viewBox="0 0 75.565 75.566">
  <defs>
    <linearGradient id="linear-gradient" x1="0.933" y1="-0.024" x2="0.09" y2="1.236" gradientUnits="objectBoundingBox">
      <stop offset="0" stop-color="#f08721"/>
      <stop offset="1" stop-color="#ffcd26"/>
    </linearGradient>
  </defs>
  <g id="Grupo_4857" data-name="Grupo 4857" transform="translate(-4945.311 3200.453)">
    <rect id="Rectángulo_4589" data-name="Rectángulo 4589" width="56.864" height="56.86" rx="9" transform="translate(4996.844 -3200.453) rotate(65)" fill="url(#linear-gradient)"/>
    <g id="noun-support-1402831" transform="translate(4860.975 -3249.711)">
      <path id="Trazado_14534" data-name="Trazado 14534" d="M116.895,352.24h-5.432c-3.214,0-5.829,2.069-5.829,4.619v3.285a.653.653,0,0,0,.651.651h15.789a.648.648,0,0,0,.651-.651v-3.285c0-2.55-2.615-4.619-5.829-4.619Z" transform="translate(0 -260.583)"/>
      <path id="Trazado_14535" data-name="Trazado 14535" d="M176.045,204.7a4.323,4.323,0,1,0-4.326-4.326A4.327,4.327,0,0,0,176.045,204.7Z" transform="translate(-61.863 -114.38)"/>
      <path id="Trazado_14536" data-name="Trazado 14536" d="M354.835,73.871h-12.8a1.716,1.716,0,0,0-1.717,1.717v7.436a1.716,1.716,0,0,0,1.717,1.717h.527v1.8a.65.65,0,0,0,.358.579.671.671,0,0,0,.293.072.61.61,0,0,0,.377-.124l3.253-2.329h7.989a1.72,1.72,0,0,0,1.717-1.717V75.589a1.72,1.72,0,0,0-1.717-1.717Zm-10.474,5.894a.649.649,0,1,1-.917-.917.673.673,0,0,1,.917,0,.651.651,0,0,1,.195.462.637.637,0,0,1-.195.455Zm4.534,0a.645.645,0,0,1-.917.006.663.663,0,0,1-.195-.462.674.674,0,0,1,.189-.462.681.681,0,0,1,.924,0,.654.654,0,0,1,.189.462.64.64,0,0,1-.189.456Zm4.534,0a.638.638,0,0,1-.462.195.655.655,0,0,1-.651-.65.641.641,0,0,1,.195-.462.673.673,0,0,1,.917,0,.652.652,0,0,1,0,.917Z" transform="translate(-219.692)"/>
    </g>
  </g>
</svg>
