<svg xmlns="http://www.w3.org/2000/svg" width="51.044" height="42.291" viewBox="0 0 51.044 42.291">
  <g id="noun-amount-2801789" transform="translate(-72.013 -59.865)">
    <path id="Trazado_14359" data-name="Trazado 14359" d="M101.943,77.709V72.282h1.129a2.5,2.5,0,0,0,1.934-4.137l-6.34-7.415a2.351,2.351,0,0,0-1.934-.86,2.487,2.487,0,0,0-1.881.86l-6.34,7.415a2.5,2.5,0,0,0,1.88,4.137h1.182v5.427a12.761,12.761,0,1,0,10.371,0ZM92.863,69.7h-2.31l6.125-7.254,6.233,7.254h-2.257a1.307,1.307,0,0,0-1.29,1.29v5.856a14.114,14.114,0,0,0-2.633-.269,13.1,13.1,0,0,0-2.579.269V70.992a1.307,1.307,0,0,0-1.29-1.29Zm3.869,29.82a10.182,10.182,0,1,1,10.155-10.209A10.193,10.193,0,0,1,96.731,99.523Z" transform="translate(-11.985)" fill="#009af0"/>
    <path id="Trazado_14360" data-name="Trazado 14360" d="M164.345,307.794h-3.492v-3.546a1.29,1.29,0,1,0-2.579,0v3.546h-3.546a1.29,1.29,0,1,0,0,2.579h3.546v3.492a1.29,1.29,0,1,0,2.579,0v-3.492h3.492a1.29,1.29,0,1,0,0-2.579Z" transform="translate(-74.763 -219.769)" fill="#009af0"/>
    <path id="Trazado_14361" data-name="Trazado 14361" d="M375.522,73.214a12.761,12.761,0,1,0-17.946,11.659V90.3h-1.129a2.5,2.5,0,0,0-1.934,4.137l6.34,7.415a2.573,2.573,0,0,0,1.881.86,2.487,2.487,0,0,0,1.881-.86l6.34-7.361a2.5,2.5,0,0,0-1.88-4.137h-1.182V84.82a12.7,12.7,0,0,0,7.63-11.606Zm-22.943,0a10.182,10.182,0,1,1,10.209,10.155,10.182,10.182,0,0,1-10.209-10.155Zm14.077,19.611h2.257l-6.072,7.253-6.233-7.253h2.257a1.307,1.307,0,0,0,1.29-1.29V85.679a14.114,14.114,0,0,0,2.633.269,13.1,13.1,0,0,0,2.579-.269v5.856A1.308,1.308,0,0,0,366.656,92.825Z" transform="translate(-252.465 -0.556)" fill="#009af0"/>
    <path id="Trazado_14362" data-name="Trazado 14362" d="M434.35,181.049a1.308,1.308,0,0,0-1.29-1.29h-8.973a1.29,1.29,0,0,0,0,2.579h9.026a1.262,1.262,0,0,0,1.236-1.29Z" transform="translate(-318.279 -108.391)" fill="#009af0"/>
  </g>
</svg>
