<svg xmlns="http://www.w3.org/2000/svg" width="29" height="29" viewBox="0 0 29 29">
  <g id="Grupo_4562" data-name="Grupo 4562" transform="translate(0 -0.016)">
    <g id="Grupo_3767" data-name="Grupo 3767" transform="translate(0 -0.001)">
      <circle id="Elipse_128" data-name="Elipse 128" cx="14.5" cy="14.5" r="14.5" transform="translate(0 0.015)" fill="#fff"/>
    </g>
    <g id="arrow_back-24px" transform="translate(23.447 23.21) rotate(180)">
      <path id="Trazado_81" data-name="Trazado 81" d="M0,0H17.585V17.585H0Z" fill="none"/>
      <path id="Trazado_82" data-name="Trazado 82" d="M10.685,4.831H2.5L6.076,1.255a.739.739,0,0,0,0-1.04.73.73,0,0,0-1.033,0L.214,5.043a.73.73,0,0,0,0,1.033L5.043,10.9A.731.731,0,1,0,6.076,9.872L2.5,6.3h8.185a.733.733,0,1,0,0-1.465Z" transform="translate(3.237 3.23)" fill="#009af0"/>
    </g>
  </g>
</svg>
