<svg xmlns="http://www.w3.org/2000/svg" width="23.616" height="25.273" viewBox="0 0 23.616 25.273">
  <g id="Grupo_4524" data-name="Grupo 4524" transform="translate(0.001)">
    <path id="Línea_4" data-name="Línea 4" d="M-.878,5.129A.621.621,0,0,1-1.425,4.8a.621.621,0,0,1,.25-.842L8.769-1.425a.621.621,0,0,1,.842.25.621.621,0,0,1-.25.842L-.583,5.054A.619.619,0,0,1-.878,5.129Z" transform="translate(13.929 20.144)" fill="#009af0"/>
    <g id="Grupo_104" data-name="Grupo 104" transform="translate(-0.001 0)">
      <path id="Trazado_90" data-name="Trazado 90" d="M-857.735-33.572l-10.119-5.117a1.473,1.473,0,0,0-1.325,0L-879.3-33.572a1.492,1.492,0,0,0-.819,1.34v9.972a1.492,1.492,0,0,0,.819,1.34l10.119,5.117a1.469,1.469,0,0,0,.662.157,1.469,1.469,0,0,0,.663-.157l10.119-5.117a1.492,1.492,0,0,0,.819-1.34v-9.972A1.492,1.492,0,0,0-857.735-33.572Zm-10.782,5.892-3.722-1.882,10.36-5.239,3.723,1.882ZM-868.836-38a.708.708,0,0,1,.32-.076.707.707,0,0,1,.32.076l3.4,1.721-10.36,5.239-3.722-1.882Zm-10.119,16.382a.72.72,0,0,1-.4-.647v-9.972c0-.019,0-.038,0-.057l3.918,1.981v5.218l2.607,1.366v-5.265l3.922,1.983v10.478Zm21.272-.647a.72.72,0,0,1-.4.647l-10.055,5.085V-27.006l10.446-5.282c0,.019,0,.038,0,.057Z" transform="translate(880.117 38.846)" fill="#353a3d"/>
    </g>
  </g>
</svg>
