<svg xmlns="http://www.w3.org/2000/svg" xmlns:xlink="http://www.w3.org/1999/xlink" width="75.563" height="75.563" viewBox="0 0 75.563 75.563">
  <defs>
    <linearGradient id="linear-gradient" x1="0.221" y1="1.007" x2="1.076" y2="0.035" gradientUnits="objectBoundingBox">
      <stop offset="0" stop-color="#4faffc"/>
      <stop offset="1" stop-color="#0d94fc"/>
    </linearGradient>
  </defs>
  <g id="Grupo_4856" data-name="Grupo 4856" transform="translate(-4681.311 3277.699)">
    <rect id="Rectángulo_4588" data-name="Rectángulo 4588" width="56.86" height="56.86" rx="9" transform="translate(4732.844 -3277.699) rotate(65)" fill="url(#linear-gradient)"/>
    <g id="noun-training-1064024" transform="translate(4613.488 -3329.953)">
      <path id="Trazado_14640" data-name="Trazado 14640" d="M276.58,109.218h-7.764v-1.493a.763.763,0,1,0-1.526,0v1.493h-7.7a2,2,0,0,0-1.991,1.991v11.978a2,2,0,0,0,1.991,1.991h3.65l-1.195,4.413h1.56l1.195-4.413h2.555v4.413h1.493v-4.38h2.522l1.195,4.413h1.56l-1.195-4.413h3.65a2,2,0,0,0,1.991-1.991V111.243a2,2,0,0,0-1.991-2.024Zm1,14a1,1,0,0,1-1,1H259.591a1,1,0,0,1-1-1V111.242a1,1,0,0,1,1-1H276.58a1,1,0,0,1,1,1Z" transform="translate(-157.519 -27.395)"/>
      <path id="Trazado_14641" data-name="Trazado 14641" d="M114.349,207.143a.272.272,0,0,0-.332-.133l-7.333,3.384a1.3,1.3,0,0,0-.763-.8l-3.949-1.327-1.327-.431-.73-.232c-.1-.033-.531-.2-1.161-.365l-.365-.1a.334.334,0,0,0-.365.166l-1.958,5.375a.358.358,0,0,1-.664,0l-1.958-5.375a.278.278,0,0,0-.265-.2c-.033,0-1.029.3-1.029.3a2.889,2.889,0,0,0-1.991,2.754v5.674a.3.3,0,0,0,.033.166l2.057,3.119V223.7h6.935V210.03l1.725.564,1.228.4,2.953,1a1.669,1.669,0,0,0,.4.066,1.275,1.275,0,0,0,1.195-.863.732.732,0,0,0,.033-.265l7.5-3.451a.228.228,0,0,0,.133-.332Z" transform="translate(0 -121.505)"/>
      <path id="Trazado_14642" data-name="Trazado 14642" d="M136.425,81.093a3.252,3.252,0,1,0-3.252,3.252A3.257,3.257,0,0,0,136.425,81.093Z" transform="translate(-37.407)"/>
      <path id="Trazado_14643" data-name="Trazado 14643" d="M171.171,210.134a.385.385,0,0,0-.332-.133h-.9a.426.426,0,0,0-.332.133.455.455,0,0,0-.066.5l.465.73-.232,1.891.431,1.161c.033.133.2.133.265,0l.431-1.161-.232-1.891.465-.73A.334.334,0,0,0,171.171,210.134Z" transform="translate(-74.641 -124.33)"/>
    </g>
  </g>
</svg>
