<svg xmlns="http://www.w3.org/2000/svg" width="51.354" height="42.292" viewBox="0 0 51.354 42.292">
  <g id="noun-dimensions-2129419" transform="translate(-9.986 0.003)">
    <path id="Trazado_14358" data-name="Trazado 14358" d="M36.353,28.528a1.494,1.494,0,0,1-1.365.007L22.9,22.494a1.51,1.51,0,0,1-.835-1.351V7.549a1.5,1.5,0,0,1,.853-1.36L34.988.157a1.51,1.51,0,0,1,1.351,0L48.422,6.2a1.493,1.493,0,0,1,.835,1.351V21.143a1.51,1.51,0,0,1-.835,1.351ZM44.369,7.55,35.663,3.2,26.957,7.55,35.663,11.9ZM34.152,14.524,25.09,9.993V20.21l9.062,4.531Zm3.021,0V24.741l9.062-4.531V9.993ZM35.041,37.753c-13.792-.168-25.055-5.913-25.055-13.59,0-3.617,2.511-6.873,6.807-9.306a1.51,1.51,0,0,1,1.489,2.628c-3.443,1.95-5.276,4.327-5.276,6.678,0,5.462,9.7,10.405,22.026,10.569l-1.948-1.949a1.51,1.51,0,1,1,2.136-2.136l4.531,4.531a1.51,1.51,0,0,1,0,2.136L35.22,41.847a1.51,1.51,0,0,1-2.136-2.136Zm18-20.268a1.51,1.51,0,0,1,1.489-2.628c4.3,2.434,6.807,5.689,6.807,9.306,0,6.057-7.019,10.991-17.1,12.836a1.51,1.51,0,0,1-.544-2.971c8.816-1.613,14.621-5.694,14.621-9.864,0-2.351-1.833-4.728-5.276-6.678Z" transform="translate(0 0)" fill="#009af0"/>
  </g>
</svg>
