<svg xmlns="http://www.w3.org/2000/svg" width="183.977" height="183.975" viewBox="0 0 183.977 183.975">
  <g id="noun-gps-1024916" transform="translate(-80.846 -21.539)">
    <path id="Trazado_14403" data-name="Trazado 14403" d="M122.2,21.539A30.677,30.677,0,0,0,91.538,52.2c0,15.561,24.684,51.742,27.481,55.845a3.857,3.857,0,0,0,6.324,0c2.8-4.1,27.52-40.282,27.52-55.845A30.7,30.7,0,0,0,122.2,21.539Zm0,45.994A15.332,15.332,0,1,1,137.532,52.2,15.327,15.327,0,0,1,122.2,67.533Z" transform="translate(-10.692)" fill="#ff9325"/>
    <path id="Trazado_14404" data-name="Trazado 14404" d="M466.82,21.539A30.677,30.677,0,0,0,436.158,52.2c0,15.561,24.684,51.742,27.481,55.845a3.857,3.857,0,0,0,6.324,0c2.8-4.1,27.519-40.282,27.519-55.845A30.7,30.7,0,0,0,466.82,21.539Zm0,45.994A15.332,15.332,0,1,1,482.152,52.2,15.327,15.327,0,0,1,466.82,67.533Z" transform="translate(-232.659)" fill="#ff9325"/>
    <path id="Trazado_14405" data-name="Trazado 14405" d="M334.218,283.1h-.107v-6.721a11.5,11.5,0,0,1,5.112,2.074l2.324-3.291a14.944,14.944,0,0,0-7.437-2.68v-1.824h-2.288v1.786a8.741,8.741,0,0,0-5.632,2.147,6.526,6.526,0,0,0-2.163,5.058,5.745,5.745,0,0,0,1.878,4.667,14.563,14.563,0,0,0,5.917,2.537v6.936a12.38,12.38,0,0,1-6.185-3.11l-2.61,3.11a15.527,15.527,0,0,0,8.8,3.9v2.61h2.288v-2.575a9.223,9.223,0,0,0,5.863-2.144,6.5,6.5,0,0,0,2.217-5.1,5.925,5.925,0,0,0-1.931-4.774,14.537,14.537,0,0,0-6.043-2.611Zm-2.4-.642a7.224,7.224,0,0,1-2.718-1.342,2.522,2.522,0,0,1-.715-1.895,2.567,2.567,0,0,1,.911-2,4.29,4.29,0,0,1,2.521-.948Zm5.006,10.439a5,5,0,0,1-2.718,1v-6.436a7.844,7.844,0,0,1,2.932,1.376,2.76,2.76,0,0,1-.214,4.058Z" transform="translate(-159.793 -160.459)" fill="#ff9325"/>
    <path id="Trazado_14406" data-name="Trazado 14406" d="M273.7,193.847a42.187,42.187,0,0,0-42.161,42.161c0,22.115,37.409,76.541,38.979,78.841a3.857,3.857,0,0,0,6.324,0c1.571-2.3,39.018-56.724,39.018-78.841A42.21,42.21,0,0,0,273.7,193.846Zm0,68.989a26.829,26.829,0,1,1,26.829-26.829A26.859,26.859,0,0,1,273.7,262.837Z" transform="translate(-100.866 -110.982)" fill="#ff9325"/>
  </g>
</svg>
