<svg xmlns="http://www.w3.org/2000/svg" xmlns:xlink="http://www.w3.org/1999/xlink" width="82" height="82" viewBox="0 0 82 82">
  <defs>
    <filter id="Rectángulo_2710" x="0" y="0" width="82" height="82" filterUnits="userSpaceOnUse">
      <feOffset dy="3" input="SourceAlpha"/>
      <feGaussianBlur stdDeviation="3" result="blur"/>
      <feFlood flood-opacity="0.302"/>
      <feComposite operator="in" in2="blur"/>
      <feComposite in="SourceGraphic"/>
    </filter>
  </defs>
  <g id="Componente_67_37" data-name="Componente 67 – 37" transform="translate(9 6)">
    <g id="Grupo_4487" data-name="Grupo 4487" transform="translate(-1321.999 -701)">
      <g id="Grupo_4486" data-name="Grupo 4486" transform="translate(-333.949 -212.729)">
        <g transform="matrix(1, 0, 0, 1, 1646.95, 907.73)" filter="url(#Rectángulo_2710)">
          <rect id="Rectángulo_2710-2" data-name="Rectángulo 2710" width="64" height="64" rx="32" transform="translate(9 6)" fill="#009af0"/>
        </g>
      </g>
      <g id="noun-graduation-589960" transform="translate(1256.289 622.045)">
        <path id="Trazado_14752" data-name="Trazado 14752" d="M137.245,224.2l-.141-.078v-.006Z" transform="translate(-55.348 -117.35)" fill="#fff"/>
        <path id="Trazado_14753" data-name="Trazado 14753" d="M213.182,234.567a.28.28,0,0,0-.006-.033,11.082,11.082,0,0,0-.184-2.379,1.323,1.323,0,0,0-.572-.913,11.883,11.883,0,0,0-1.268-.769,14.251,14.251,0,0,0-3.483-1.183,32.86,32.86,0,0,0-7.979-.572,33.261,33.261,0,0,0-3.339.283,15.314,15.314,0,0,0-5.369,1.676c-.624.348-1.071.578-1.249,1.3a34.787,34.787,0,0,0-.441,6.125.79.79,0,0,0,.368.729,4.211,4.211,0,0,0,.776.427,21.764,21.764,0,0,0,5.093,1.1,23.017,23.017,0,0,0,2.688.2,50.089,50.089,0,0,0,11.889-.716,17.081,17.081,0,0,0,2.662-.933.767.767,0,0,0,.487-.749c-.02-.848-.027-2.74-.073-3.588Zm-1.63,4.029a6.115,6.115,0,0,1-1.327.46,20.843,20.843,0,0,1-2.471.355c-1.577.1-3.161.191-4.738.27-.591.033-1.177.046-1.761.039-.94,0-1.866-.039-2.812-.085-1.177-.059-2.346-.125-3.516-.224a12.917,12.917,0,0,1-3.628-.677.636.636,0,0,1-.118-.039c-.322-.145-.749-.454-.342-.756a2.881,2.881,0,0,1,.959-.342,14.007,14.007,0,0,1,1.735-.394,39.4,39.4,0,0,1,6.407-.414c2,.013,4-.026,5.994.079,1.466.079,2.925.342,4.377.559a3.794,3.794,0,0,1,1.085.27C211.755,237.866,212.1,238.352,211.552,238.6Z" transform="translate(-103.626 -121.575)" fill="#fff"/>
        <path id="Trazado_14754" data-name="Trazado 14754" d="M116.988,298.7a34.1,34.1,0,0,1,1.255,7.952s-.381.611-1.833.69c-1.446-.079-1.827-.69-1.827-.69a34.524,34.524,0,0,1,1.249-7.952,1.064,1.064,0,0,1,.316-1.925v-2.024l.533.315v1.709a1.061,1.061,0,0,1,.309,1.926Z" transform="translate(-34.515 -182.686)" fill="#fff"/>
        <path id="Trazado_14755" data-name="Trazado 14755" d="M118.15,108.66c-2.327,1.336-4.584,2.637-6.919,3.99l-.388.224v-.1l-.008-.035c-.008-.155-.008-.31-.008-.465a8.152,8.152,0,0,0-.207-2.025,2.609,2.609,0,0,0-1.12-1.672l-.2-.129a11.3,11.3,0,0,0-1.2-.715,16.037,16.037,0,0,0-3.8-1.292,32.455,32.455,0,0,0-6.584-.629c-.569,0-1.138.008-1.706.035-1.353.06-2.456.146-3.473.293A16.459,16.459,0,0,0,86.672,108a3.122,3.122,0,0,0-1.819,2.094A14.857,14.857,0,0,0,84.5,112.8l-.586-.345-1.232-.7-.138-.085-.517-.3-.138-.086-1.6-.913c-.957-.56-1.939-1.12-3.016-1.74.483-.3.836-.535,1.2-.741q9.177-5.17,18.346-10.358a1.611,1.611,0,0,1,1.819.008c6.2,3.533,12.435,7.023,18.647,10.53a9.425,9.425,0,0,1,.869.585Z" transform="translate(0 0)" fill="#fff"/>
      </g>
    </g>
  </g>
</svg>
