<svg xmlns="http://www.w3.org/2000/svg" width="30" height="30" viewBox="0 0 30 30">
  <g id="Grupo_4565" data-name="Grupo 4565" transform="translate(-862 -7088.714)">
    <circle id="Elipse_337" data-name="Elipse 337" cx="15" cy="15" r="15" transform="translate(862 7088.714)" fill="#fff"/>
    <g id="noun-graduation-589960" transform="translate(788.729 6998.454)">
      <path id="Trazado_14752" data-name="Trazado 14752" d="M137.181,224.163l-.078-.043v0Z" transform="translate(-57.36 -121.615)" fill="#353a3d"/>
      <path id="Trazado_14753" data-name="Trazado 14753" d="M202.464,231.928a.154.154,0,0,0,0-.018,6.11,6.11,0,0,0-.1-1.312.729.729,0,0,0-.315-.5,6.554,6.554,0,0,0-.7-.424,7.857,7.857,0,0,0-1.921-.652,18.117,18.117,0,0,0-4.4-.315,18.34,18.34,0,0,0-1.841.156,8.444,8.444,0,0,0-2.96.924c-.344.192-.591.319-.688.717a19.181,19.181,0,0,0-.243,3.377.436.436,0,0,0,.2.4,2.321,2.321,0,0,0,.428.235,12,12,0,0,0,2.808.605,12.69,12.69,0,0,0,1.482.109,27.617,27.617,0,0,0,6.555-.395,9.421,9.421,0,0,0,1.468-.515.423.423,0,0,0,.268-.413c-.011-.467-.015-1.511-.04-1.978Zm-.9,2.221a3.373,3.373,0,0,1-.732.254,11.491,11.491,0,0,1-1.362.2c-.87.058-1.743.105-2.613.149-.326.018-.649.025-.971.022-.518,0-1.029-.022-1.551-.047-.649-.033-1.294-.069-1.939-.123a7.121,7.121,0,0,1-2-.373.351.351,0,0,1-.065-.022c-.178-.08-.413-.25-.188-.417a1.588,1.588,0,0,1,.529-.188,7.723,7.723,0,0,1,.957-.217,21.726,21.726,0,0,1,3.533-.228c1.1.007,2.2-.015,3.3.043.808.043,1.613.188,2.413.308a2.092,2.092,0,0,1,.6.149C201.678,233.747,201.866,234.015,201.565,234.149Z" transform="translate(-107.392 -125.994)" fill="#353a3d"/>
      <path id="Trazado_14754" data-name="Trazado 14754" d="M115.908,296.924a18.8,18.8,0,0,1,.692,4.385s-.21.337-1.011.38c-.8-.043-1.007-.38-1.007-.38a19.035,19.035,0,0,1,.688-4.385.587.587,0,0,1,.174-1.062v-1.116l.294.174v.942a.585.585,0,0,1,.17,1.062Z" transform="translate(-35.769 -189.326)" fill="#353a3d"/>
      <path id="Trazado_14755" data-name="Trazado 14755" d="M99.811,103.545c-1.283.737-2.528,1.454-3.815,2.2l-.214.124v-.052l0-.019c0-.086,0-.171,0-.257a4.5,4.5,0,0,0-.114-1.117,1.439,1.439,0,0,0-.618-.922l-.109-.071a6.228,6.228,0,0,0-.66-.395,8.842,8.842,0,0,0-2.1-.713,17.894,17.894,0,0,0-3.63-.347c-.313,0-.627,0-.941.019-.746.033-1.354.081-1.915.162a9.075,9.075,0,0,0-3.236,1.026,1.721,1.721,0,0,0-1,1.154,8.191,8.191,0,0,0-.195,1.492l-.323-.19-.679-.385-.076-.047-.285-.166-.076-.047-.884-.5c-.528-.309-1.069-.618-1.663-.96.266-.166.461-.295.66-.409q5.06-2.85,10.116-5.711a.888.888,0,0,1,1,0c3.421,1.948,6.856,3.872,10.282,5.806a5.2,5.2,0,0,1,.479.322Z" transform="translate(0 0)" fill="#353a3d"/>
    </g>
  </g>
</svg>
