<svg xmlns="http://www.w3.org/2000/svg" xmlns:xlink="http://www.w3.org/1999/xlink" width="27" height="27" viewBox="0 0 27 27">
  <defs>
    <clipPath id="clip-path">
      <rect id="Rectángulo_5072" data-name="Rectángulo 5072" width="27" height="27" transform="translate(460 1665)" fill="#fff" stroke="#707070" stroke-width="1"/>
    </clipPath>
  </defs>
  <g id="Enmascarar_grupo_153" data-name="Enmascarar grupo 153" transform="translate(-460 -1665)" clip-path="url(#clip-path)">
    <g id="noun-share-1707173" transform="translate(268.127 1575.469)">
      <path id="Trazado_14922" data-name="Trazado 14922" d="M209.514,95.2a2.426,2.426,0,0,0-2.169,3.532l-4.308,2.877a2.436,2.436,0,1,0,0,3.257l4.308,2.869a2.409,2.409,0,0,0-.266,1.1,2.456,2.456,0,1,0,.891-1.872l-4.43-2.946a2.422,2.422,0,0,0,.129-.784,2.379,2.379,0,0,0-.129-.784l4.414-2.953a2.415,2.415,0,0,0,1.56.571,2.436,2.436,0,0,0,0-4.871Z" fill="#009af0"/>
    </g>
  </g>
</svg>
