<svg xmlns="http://www.w3.org/2000/svg" xmlns:xlink="http://www.w3.org/1999/xlink" width="75.563" height="75.563" viewBox="0 0 75.563 75.563">
  <defs>
    <linearGradient id="linear-gradient" x1="0.221" y1="1.007" x2="1.076" y2="0.035" gradientUnits="objectBoundingBox">
      <stop offset="0" stop-color="#4faffc"/>
      <stop offset="1" stop-color="#0d94fc"/>
    </linearGradient>
  </defs>
  <g id="Grupo_4855" data-name="Grupo 4855" transform="translate(-4945.311 3537.672)">
    <rect id="Rectángulo_4585" data-name="Rectángulo 4585" width="56.86" height="56.86" rx="9" transform="translate(4996.844 -3537.672) rotate(65)" fill="url(#linear-gradient)"/>
    <g id="noun-saving-2408962" transform="translate(4915.84 -3511.242)">
      <path id="Trazado_14635" data-name="Trazado 14635" d="M82.11,152.607l-2.3-1.583c-.226-3.926-3.245-7.28-7.527-8.848a5.522,5.522,0,0,1-10.94,0q-.346.128-.682.269l-3.88-.976a.833.833,0,0,0-.712.143.842.842,0,0,0-.335.646l-.125,4.36a5.325,5.325,0,0,0-1.023,2.052H52.846c-.486,0-.88,1.108-.88,3.052s.395,3.052.88,3.052h1.736c.375,1.016.435,1.825,1.453,2.529v4.522a1.118,1.118,0,0,0,1.123,1.085h4.167c.6,0,.814-.486.814-1.085v-.659a22.02,22.02,0,0,0,4.577.6,15.642,15.642,0,0,0,4.577-.6v.9a.771.771,0,0,0,.755.842h4.41a.97.97,0,0,0,.939-1.085V157.3a9.357,9.357,0,0,0,2.143-3.976l1.4.935a1.064,1.064,0,0,0,.586.177,1.019,1.019,0,0,0,.836-.435,1,1,0,0,0-.248-1.4Z" transform="translate(0 -138.629)"/>
      <path id="Trazado_14636" data-name="Trazado 14636" d="M263.95,67.866a4.185,4.185,0,1,0-4.184-4.186,4.185,4.185,0,0,0,4.184,4.186Zm0-6.335A2.15,2.15,0,1,1,261.8,63.68,2.152,2.152,0,0,1,263.95,61.53Z" transform="translate(-197.142 -60.884)"/>
      <path id="Trazado_14637" data-name="Trazado 14637" d="M485.88-.131l.763-1.512,1.512-.763-1.512-.763L485.88-4.68l-.763,1.512-1.511.763,1.511.763Z" transform="translate(-409.502)"/>
      <path id="Trazado_14638" data-name="Trazado 14638" d="M164.185,14.5l.483-.955.955-.483-.955-.483-.483-.955-.483.955-.955.483.955.483Z" transform="translate(-105.099 -15.465)"/>
      <path id="Trazado_14639" data-name="Trazado 14639" d="M559.751,141.864l.763,1.513.763-1.513,1.511-.763-1.511-.763-.763-1.512-.763,1.512-1.513.763Z" transform="translate(-480.306 -136.147)"/>
    </g>
  </g>
</svg>
