<svg xmlns="http://www.w3.org/2000/svg" xmlns:xlink="http://www.w3.org/1999/xlink" width="26" height="26" viewBox="0 0 26 26">
  <defs>
    <clipPath id="clip-path">
      <rect id="Rectángulo_5184" data-name="Rectángulo 5184" width="26" height="26" transform="translate(691 23058)" fill="#fff" stroke="#707070" stroke-width="1"/>
    </clipPath>
  </defs>
  <g id="Enmascarar_grupo_191" data-name="Enmascarar grupo 191" transform="translate(-691 -23058)" clip-path="url(#clip-path)">
    <g id="instagram" transform="translate(694.07 23061.039)">
      <path id="Trazado_2338" data-name="Trazado 2338" d="M1.234,1.35C-.333,2.978-.012,4.706-.012,9.959c0,4.362-.761,8.734,3.222,9.763a94.912,94.912,0,0,0,13.505,0A4.283,4.283,0,0,0,19.907,15.6c.026-.327.026-10.954,0-11.288A4.289,4.289,0,0,0,16.146.085a17.937,17.937,0,0,0-2.94-.091C4.754,0,2.9-.379,1.234,1.35Z" transform="translate(0 0)" fill="#009af0"/>
      <path id="Trazado_2339" data-name="Trazado 2339" d="M9.961,3.137c-2.8,0-5.453-.249-6.467,2.355a13.447,13.447,0,0,0-.358,4.472,14.251,14.251,0,0,0,.358,4.471c1.012,2.606,3.69,2.356,6.466,2.356,2.678,0,5.44.279,6.466-2.356a13.426,13.426,0,0,0,.358-4.471c0-2.667.147-4.389-1.146-5.682-1.309-1.31-3.08-1.146-5.68-1.146ZM9.35,4.367c5.834-.009,6.577-.658,6.167,8.353-.146,3.187-2.572,2.837-5.554,2.837-5.438,0-5.594-.156-5.594-5.6,0-5.5.431-5.591,4.982-5.6ZM13.6,5.5a.819.819,0,1,0,.819.819A.819.819,0,0,0,13.6,5.5Zm-3.643.958a3.506,3.506,0,1,0,3.5,3.506,3.506,3.506,0,0,0-3.5-3.506Zm0,1.23a2.276,2.276,0,0,1,0,4.552A2.276,2.276,0,0,1,9.961,7.689Z" transform="translate(0 0)" fill="#fff"/>
    </g>
  </g>
</svg>
