<svg xmlns="http://www.w3.org/2000/svg" xmlns:xlink="http://www.w3.org/1999/xlink" width="26" height="26" viewBox="0 0 26 26">
  <defs>
    <clipPath id="clip-path">
      <rect id="Rectángulo_5188" data-name="Rectángulo 5188" width="26" height="26" transform="translate(729 23058)" fill="#fff" stroke="#707070" stroke-width="1"/>
    </clipPath>
  </defs>
  <g id="Enmascarar_grupo_192" data-name="Enmascarar grupo 192" transform="translate(-729 -23058)" clip-path="url(#clip-path)">
    <path id="linkedin" d="M17.795,0H1.77A1.77,1.77,0,0,0,0,1.77V17.795a1.77,1.77,0,0,0,1.77,1.77H17.795a1.77,1.77,0,0,0,1.77-1.77V1.77A1.77,1.77,0,0,0,17.795,0ZM6.054,16.893a.515.515,0,0,1-.515.515H3.347a.515.515,0,0,1-.515-.515V7.7a.515.515,0,0,1,.515-.515H5.539a.515.515,0,0,1,.515.515ZM4.443,6.322A2.083,2.083,0,1,1,6.526,4.239,2.083,2.083,0,0,1,4.443,6.322ZM17.511,16.935a.474.474,0,0,1-.474.474H14.685a.474.474,0,0,1-.474-.474V12.624c0-.643.189-2.818-1.681-2.818-1.45,0-1.744,1.489-1.8,2.157v4.972a.474.474,0,0,1-.474.474H7.979a.474.474,0,0,1-.474-.474V7.662a.474.474,0,0,1,.474-.474h2.275a.474.474,0,0,1,.474.474v.8a3.23,3.23,0,0,1,3.038-1.43c3.767,0,3.745,3.519,3.745,5.453v4.448Z" transform="translate(732 23061)" fill="#009af0"/>
  </g>
</svg>
