<svg xmlns="http://www.w3.org/2000/svg" width="28.921" height="44.899" viewBox="0 0 28.921 44.899">
  <g id="noun-place-localizer-610208" transform="translate(-99.143 -28)">
    <path id="Trazado_14363" data-name="Trazado 14363" d="M213.261,28A14.182,14.182,0,0,0,198.8,41.962c0,5.662,3.455,11.414,6.778,15.878,1.015,1.363,2.024,2.578,2.945,3.646-.083.044-.169.093-.249.14a5.214,5.214,0,0,0-2.166,2.275H202.29a1.45,1.45,0,0,0-.156,0,1.5,1.5,0,1,0,.156,2.992h3.833a5.217,5.217,0,0,0,2.15,2.259,9.266,9.266,0,0,0,3.49,1.137v1.091a1.5,1.5,0,1,0,2.992,0V70.29a9.266,9.266,0,0,0,3.49-1.137,5.22,5.22,0,0,0,2.151-2.259h3.833a1.5,1.5,0,1,0,0-2.992h-3.818a5.213,5.213,0,0,0-2.166-2.275c-.08-.047-.167-.081-.249-.125.923-1.07,1.928-2.295,2.945-3.662,3.323-4.465,6.778-10.216,6.778-15.878A14.182,14.182,0,0,0,213.261,28Zm0,2.992c6.4,0,11.469,4.791,11.469,10.97,0,4.374-3.027,9.842-6.186,14.087a57.7,57.7,0,0,1-5.282,6.2,57.776,57.776,0,0,1-5.282-6.2c-3.159-4.245-6.186-9.712-6.186-14.087,0-6.179,5.069-10.97,11.469-10.97Zm0,2.493a8.976,8.976,0,1,0,8.976,8.976A9,9,0,0,0,213.261,33.485Zm0,2.992a5.984,5.984,0,1,1-5.984,5.984A5.961,5.961,0,0,1,213.261,36.477ZM210.627,63.84c.926.978,1.6,1.636,1.6,1.636a1.5,1.5,0,0,0,2.057,0s.679-.658,1.6-1.636a5.169,5.169,0,0,1,.842.374c.8.465,1.013.913,1.013,1.184s-.216.7-1.013,1.169a7.725,7.725,0,0,1-6.95,0c-.8-.465-1.013-.9-1.013-1.169s.216-.72,1.013-1.184A4.889,4.889,0,0,1,210.627,63.84Z" transform="translate(-99.657 0)" fill="#009af0"/>
  </g>
</svg>
