<svg id="Recogido_por_la_transportadora" data-name="Recogido por la transportadora" xmlns="http://www.w3.org/2000/svg" width="42.33" height="43.177" viewBox="0 0 42.33 43.177">
  <g id="Flat_2_">
    <path id="Trazado_125" data-name="Trazado 125" d="M58.491,18.081V55.4H20.54V18.081L39.516,13.69Z" transform="translate(-18.351 -12.227)" fill="#0069a3"/>
    <path id="Trazado_126" data-name="Trazado 126" d="M75.32,130.09h26.273v29.272H75.32Z" transform="translate(-67.291 -116.186)" fill="#777"/>
    <path id="Trazado_127" data-name="Trazado 127" d="M58.491,18.081v3.171L39.516,16.659,20.54,21.253V18.081L39.516,13.69Z" transform="translate(-18.351 -12.227)" fill="#1a5370"/>
    <path id="Trazado_128" data-name="Trazado 128" d="M175.549,71.406h-2.92a1.461,1.461,0,0,1-1.459-1.463h0a1.461,1.461,0,0,1,1.459-1.463h2.92a1.461,1.461,0,0,1,1.459,1.463h0A1.461,1.461,0,0,1,175.549,71.406Z" transform="translate(-152.925 -61.161)" fill="#009af0"/>
    <path id="Trazado_129" data-name="Trazado 129" d="M42.33,5.123,21.165,0,0,5.123V8.05L21.165,2.928,42.33,8.05Z" fill="#f08700"/>
    <path id="Trazado_130" data-name="Trazado 130" d="M75.32,130.09h26.273v12.441H75.32Z" transform="translate(-67.291 -116.186)" fill="#c9c9c8"/>
    <g id="Grupo_319" data-name="Grupo 319" transform="translate(8.029 16.1)">
      <path id="Trazado_131" data-name="Trazado 131" d="M75.32,150.63h26.273v1.463H75.32Z" transform="translate(-75.32 -150.63)" fill="#b2b1b4"/>
      <path id="Trazado_132" data-name="Trazado 132" d="M75.32,178.02h26.273v1.463H75.32Z" transform="translate(-75.32 -175.092)" fill="#b2b1b4"/>
      <path id="Trazado_133" data-name="Trazado 133" d="M75.32,205.4h26.273v1.463H75.32Z" transform="translate(-75.32 -199.546)" fill="#b2b1b4"/>
      <path id="Trazado_134" data-name="Trazado 134" d="M75.32,232.79h26.273v1.463H75.32Z" transform="translate(-75.32 -224.008)" fill="#b2b1b4"/>
    </g>
    <path id="Trazado_135" data-name="Trazado 135" d="M26.274,208.278V196.569H13.136V184.86H0v23.418Z" transform="translate(0 -165.102)" fill="#ff9c19"/>
    <path id="Trazado_136" data-name="Trazado 136" d="M164.32,294.41H168.7V298.8H164.32Z" transform="translate(-146.805 -262.942)" fill="#ffe6bb"/>
    <path id="Trazado_137" data-name="Trazado 137" d="M142.506,301.26h-1.095a1.1,1.1,0,0,0-1.095,1.1v1.858a5.818,5.818,0,0,1-5.81,5.826h-3.312a1.1,1.1,0,0,0-1.095,1.1v1.1h12.407V301.26Z" transform="translate(-116.232 -269.06)" fill="#f08700"/>
    <path id="Trazado_138" data-name="Trazado 138" d="M212.25,369.73h1.459v1.463H212.25Z" transform="translate(-189.626 -330.212)" fill="#f79726"/>
    <path id="Trazado_139" data-name="Trazado 139" d="M41.08,294.41h4.379V298.8H41.08Z" transform="translate(-36.701 -262.942)" fill="#ffe6bb"/>
    <path id="Trazado_140" data-name="Trazado 140" d="M19.256,301.26H18.162a1.1,1.1,0,0,0-1.095,1.1v1.858a5.818,5.818,0,0,1-5.81,5.826H7.945a1.1,1.1,0,0,0-1.095,1.1v1.1H19.257V301.26Z" transform="translate(-6.12 -269.06)" fill="#f08700"/>
    <path id="Trazado_141" data-name="Trazado 141" d="M89.01,369.73h1.459v1.463H89.01Z" transform="translate(-79.522 -330.212)" fill="#f79726"/>
    <path id="Trazado_142" data-name="Trazado 142" d="M41.08,184.86h4.379v4.391H41.08Z" transform="translate(-36.701 -165.102)" fill="#ffe6bb"/>
    <path id="Trazado_143" data-name="Trazado 143" d="M19.256,191.71H18.162a1.1,1.1,0,0,0-1.095,1.1v1.858a5.818,5.818,0,0,1-5.81,5.826H7.945a1.1,1.1,0,0,0-1.095,1.1v1.1H19.257V191.71Z" transform="translate(-6.12 -171.219)" fill="#f08700"/>
    <path id="Trazado_144" data-name="Trazado 144" d="M89.01,260.18h1.459v1.463H89.01Z" transform="translate(-79.522 -232.371)" fill="#f79726"/>
  </g>
</svg>
