<svg xmlns="http://www.w3.org/2000/svg" width="23.072" height="24.36" viewBox="0 0 23.072 24.36">
  <g id="Weight" transform="translate(-95 -86.017)">
    <g id="Grupo_122" data-name="Grupo 122" transform="translate(95 86.017)">
      <g id="Grupo_121" data-name="Grupo 121" transform="translate(0 0)">
        <path id="Trazado_108" data-name="Trazado 108" d="M118,105.191l-1.8-10.214a4.411,4.411,0,0,0-4.35-3.649H109.3a3.375,3.375,0,1,0-5.523,0h-2.553a4.411,4.411,0,0,0-4.35,3.649l-1.8,10.214a4.417,4.417,0,0,0,4.35,5.185h14.237a4.417,4.417,0,0,0,4.35-5.185ZM106.536,87.455a1.937,1.937,0,1,1-1.937,1.937A1.939,1.939,0,0,1,106.536,87.455Zm9.4,20.419a2.972,2.972,0,0,1-2.282,1.064H99.417a2.979,2.979,0,0,1-2.933-3.5l1.8-10.214a2.975,2.975,0,0,1,2.933-2.461H111.85a2.975,2.975,0,0,1,2.933,2.461l1.8,10.214A2.973,2.973,0,0,1,115.937,107.874Z" transform="translate(-95 -86.017)" fill="#353a3d"/>
      </g>
    </g>
    <g id="Grupo_124" data-name="Grupo 124" transform="translate(101.487 97.771)">
      <g id="Grupo_123" data-name="Grupo 123" transform="translate(0)">
        <path id="Trazado_109" data-name="Trazado 109" d="M188.215,253.145l1.8-1.862a.719.719,0,0,0-1.034-1l-2.015,2.082v-1.582a.719.719,0,1,0-1.438,0v4.724a.719.719,0,1,0,1.438,0v-1.582l2.015,2.082a.719.719,0,0,0,1.034-1Z" transform="translate(-185.53 -250.064)" fill="#353a3d"/>
      </g>
    </g>
    <g id="Grupo_126" data-name="Grupo 126" transform="translate(106.981 97.772)">
      <g id="Grupo_125" data-name="Grupo 125">
        <path id="Trazado_110" data-name="Trazado 110" d="M266.1,252.632H265.02a.719.719,0,0,0,0,1.438h.349a.864.864,0,0,1-1.716-.143v-1.558a.864.864,0,0,1,1.546-.531.719.719,0,0,0,1.134-.885,2.3,2.3,0,0,0-4.118,1.416v1.558a2.3,2.3,0,0,0,4.6,0v-.576A.719.719,0,0,0,266.1,252.632Z" transform="translate(-262.214 -250.067)" fill="#353a3d"/>
      </g>
    </g>
  </g>
</svg>
