<svg xmlns="http://www.w3.org/2000/svg" xmlns:xlink="http://www.w3.org/1999/xlink" width="82" height="82" viewBox="0 0 82 82">
  <defs>
    <filter id="Rect치ngulo_2710" x="0" y="0" width="82" height="82" filterUnits="userSpaceOnUse">
      <feOffset dy="3" input="SourceAlpha"/>
      <feGaussianBlur stdDeviation="3" result="blur"/>
      <feFlood flood-opacity="0.302"/>
      <feComposite operator="in" in2="blur"/>
      <feComposite in="SourceGraphic"/>
    </filter>
  </defs>
  <g id="Grupo_3786" data-name="Grupo 3786" transform="translate(-1646.949 -907.728)">
    <g transform="matrix(1, 0, 0, 1, 1646.95, 907.73)" filter="url(#Rect치ngulo_2710)">
      <rect id="Rect치ngulo_2710-2" data-name="Rect치ngulo 2710" width="64" height="64" rx="32" transform="translate(9 6)" fill="#20d000"/>
    </g>
    <path id="whatsapp" d="M28.661,4.856A16.563,16.563,0,0,0,2.6,24.836L.25,33.417l8.778-2.3a16.541,16.541,0,0,0,7.913,2.016h.007A16.566,16.566,0,0,0,28.661,4.856ZM16.948,30.333h-.006a13.746,13.746,0,0,1-7.005-1.918l-.5-.3L4.226,29.483,5.616,24.4l-.327-.521a13.763,13.763,0,1,1,11.659,6.45ZM24.5,20.025c-.414-.207-2.448-1.208-2.827-1.346s-.655-.207-.931.207-1.069,1.346-1.31,1.622-.483.311-.9.1a11.3,11.3,0,0,1-3.327-2.054,12.481,12.481,0,0,1-2.3-2.866c-.241-.414,0-.617.182-.844a11.7,11.7,0,0,0,1.034-1.415.761.761,0,0,0-.035-.725c-.1-.207-.931-2.244-1.275-3.072-.336-.806-.677-.7-.931-.71s-.517-.014-.793-.014a1.52,1.52,0,0,0-1.1.518A4.641,4.641,0,0,0,8.534,12.88a8.049,8.049,0,0,0,1.689,4.28c.207.276,2.918,4.455,7.068,6.247a23.682,23.682,0,0,0,2.359.872,5.672,5.672,0,0,0,2.606.164,4.262,4.262,0,0,0,2.793-1.967,3.457,3.457,0,0,0,.241-1.968C25.187,20.336,24.911,20.232,24.5,20.025Zm0,0" transform="translate(1670.998 929.309)" fill="#fff" fill-rule="evenodd"/>
  </g>
</svg>
