<svg xmlns="http://www.w3.org/2000/svg" xmlns:xlink="http://www.w3.org/1999/xlink" width="75.565" height="75.566" viewBox="0 0 75.565 75.566">
  <defs>
    <linearGradient id="linear-gradient" x1="0.933" y1="-0.024" x2="0.09" y2="1.236" gradientUnits="objectBoundingBox">
      <stop offset="0" stop-color="#f08721"/>
      <stop offset="1" stop-color="#ffcd26"/>
    </linearGradient>
  </defs>
  <g id="Grupo_4854" data-name="Grupo 4854" transform="translate(-4684.092 3614.703)">
    <rect id="Rectángulo_4590" data-name="Rectángulo 4590" width="56.864" height="56.86" rx="9" transform="translate(4735.625 -3614.703) rotate(65)" fill="url(#linear-gradient)"/>
    <g id="noun-price-2011159" transform="translate(4580.441 -3608.469)">
      <path id="Trazado_14444" data-name="Trazado 14444" d="M137.027,356.782a.99.99,0,0,0-.619-.241l-1.445-.1a5.1,5.1,0,0,1-3.648-1.962l-3.441,7.33a.924.924,0,0,0,1.032,1.308l3.1-.585a.95.95,0,0,1,1,.447l1.514,2.753a.91.91,0,0,0,1.652-.069l3.372-7.123a5.048,5.048,0,0,1-1.376-.826Z" transform="translate(0 -318.38)"/>
      <path id="Trazado_14445" data-name="Trazado 14445" d="M393.518,361.284l-3.441-7.364a5.078,5.078,0,0,1-3.613,1.962l-1.445.1a1.372,1.372,0,0,0-.619.241l-1.1.964a4.726,4.726,0,0,1-1.376.826l3.338,7.123a.959.959,0,0,0,1.686.069l1.514-2.753a.9.9,0,0,1,1-.447l3.1.585a.907.907,0,0,0,.964-1.308Z" transform="translate(-238.528 -317.857)"/>
      <path id="Trazado_14446" data-name="Trazado 14446" d="M175.056,36.854a2.97,2.97,0,0,1,1.755-.723l1.445-.1a3.035,3.035,0,0,0,2.822-2.822l.1-1.445a2.966,2.966,0,0,1,.723-1.755l.964-1.1a3.036,3.036,0,0,0,0-3.992l-.964-1.1a2.969,2.969,0,0,1-.723-1.755l-.1-1.445a3.035,3.035,0,0,0-2.822-2.822l-1.445-.1a2.966,2.966,0,0,1-1.755-.723l-1.1-.964a3.036,3.036,0,0,0-3.992,0l-1.1.861a2.97,2.97,0,0,1-1.755.723l-1.445.1a3.035,3.035,0,0,0-2.822,2.822l-.1,1.445a2.966,2.966,0,0,1-.723,1.755l-.964,1.1a3.036,3.036,0,0,0,0,3.992l.964,1.1a2.97,2.97,0,0,1,.723,1.755l.1,1.445a3.035,3.035,0,0,0,2.822,2.822l1.445.1a2.966,2.966,0,0,1,1.755.723l1.1.964a3.036,3.036,0,0,0,3.992,0Zm-2.271-4.026a.235.235,0,0,1-.241.241h-1.17a.235.235,0,0,1-.241-.241v-1.17a2.406,2.406,0,0,1-2.271-2.2.235.235,0,0,1,.241-.241h1.17a.193.193,0,0,1,.206.172.81.81,0,0,0,.791.654H172.3a1.231,1.231,0,0,0,1.239-1.032,1.2,1.2,0,0,0-1.17-1.308h-.757a2.884,2.884,0,0,1-2.925-2.512,2.829,2.829,0,0,1,2.409-3.063v-1.17a.235.235,0,0,1,.241-.241h1.17a.235.235,0,0,1,.241.241v1.17a2.406,2.406,0,0,1,2.271,2.2.235.235,0,0,1-.241.241h-1.17a.193.193,0,0,1-.206-.172.81.81,0,0,0-.791-.654h-1.032a1.231,1.231,0,0,0-1.239,1.032,1.2,1.2,0,0,0,1.17,1.308h.895a2.8,2.8,0,0,1,2.787,3.1,2.884,2.884,0,0,1-2.409,2.478Z" transform="translate(-30.528)"/>
    </g>
  </g>
</svg>
