<svg xmlns="http://www.w3.org/2000/svg" xmlns:xlink="http://www.w3.org/1999/xlink" width="26" height="26" viewBox="0 0 26 26">
  <defs>
    <clipPath id="clip-path">
      <rect id="Rectángulo_5186" data-name="Rectángulo 5186" width="26" height="26" transform="translate(796 23058)" fill="#fff" stroke="#707070" stroke-width="1"/>
    </clipPath>
  </defs>
  <g id="Enmascarar_grupo_194" data-name="Enmascarar grupo 194" transform="translate(-796 -23058)" clip-path="url(#clip-path)">
    <g id="noun-youtube-897674" transform="translate(628.998 22909)">
      <path id="Trazado_14786" data-name="Trazado 14786" d="M187.661,154H172.007a4,4,0,0,0-4,4v8.373h0a4,4,0,0,0,4,4h15.654a4,4,0,0,0,4-4V158h0a4,4,0,0,0-4-4Zm-3.193,8.351-7.1,3.641a.182.182,0,0,1-.266-.16V158.55a.182.182,0,0,1,.266-.16l7.1,3.641a.182.182,0,0,1,0,.324Z" transform="translate(0 0)" fill="#009af0"/>
    </g>
  </g>
</svg>
