<svg xmlns="http://www.w3.org/2000/svg" xmlns:xlink="http://www.w3.org/1999/xlink" width="94.669" height="94.671" viewBox="0 0 94.669 94.671">
  <defs>
    <linearGradient id="linear-gradient" x1="0.933" y1="-0.024" x2="0.09" y2="1.236" gradientUnits="objectBoundingBox">
      <stop offset="0" stop-color="#f08721"/>
      <stop offset="1" stop-color="#ffcd26"/>
    </linearGradient>
  </defs>
  <g id="Grupo_4545" data-name="Grupo 4545" transform="translate(-198.001 -2862.328)">
    <rect id="Rect치ngulo_4856" data-name="Rect치ngulo 4856" width="73.864" height="73.86" rx="13" transform="translate(267.406 2862.328) rotate(70)" fill="url(#linear-gradient)"/>
    <path id="Sustracci칩n_4" data-name="Sustracci칩n 4" d="M-28.961-3683.733H-55.776A1.225,1.225,0,0,1-57-3684.957v-26.82A1.225,1.225,0,0,1-55.776-3713h6.137v8.5a.872.872,0,0,0,.871.871h12.8a.874.874,0,0,0,.875-.871v-8.5h6.137a1.209,1.209,0,0,1,.865.36,1.208,1.208,0,0,1,.355.864v26.82A1.223,1.223,0,0,1-28.961-3683.733Zm-22.449-3.256a.872.872,0,0,0-.871.871.872.872,0,0,0,.871.871h18.079a.872.872,0,0,0,.871-.871.872.872,0,0,0-.871-.871Zm9.04-13.365a4.412,4.412,0,0,0-4.407,4.406,4.411,4.411,0,0,0,4.407,4.405,4.41,4.41,0,0,0,4.405-4.405A4.411,4.411,0,0,0-42.369-3700.353Zm0,8.078a3.676,3.676,0,0,1-3.672-3.672,3.65,3.65,0,0,1,1.074-2.6,3.65,3.65,0,0,1,2.6-1.073,3.676,3.676,0,0,1,3.671,3.672A3.676,3.676,0,0,1-42.369-3692.275Zm-.934-2.838a.378.378,0,0,0-.085.01.369.369,0,0,0-.272.442,1.3,1.3,0,0,0,.772.895.7.7,0,0,0,.106.031h0l.01,0,.032.007v.347a.368.368,0,0,0,.367.367.367.367,0,0,0,.367-.367v-.342a1.335,1.335,0,0,0,.3-.125,1.3,1.3,0,0,0,.646-.989,1.273,1.273,0,0,0-.443-1.092,2.024,2.024,0,0,0-.652-.316,2.177,2.177,0,0,1-.614-.286.571.571,0,0,1-.19-.462.6.6,0,0,1,.282-.425.639.639,0,0,1,.313-.077.607.607,0,0,1,.229.042.6.6,0,0,1,.337.386.366.366,0,0,0,.358.282.36.36,0,0,0,.084-.01.37.37,0,0,0,.273-.442,1.3,1.3,0,0,0-.772-.895.659.659,0,0,0-.1-.031l-.048-.012v-.347a.369.369,0,0,0-.367-.367.368.368,0,0,0-.367.367v.344a1.286,1.286,0,0,0-.3.124,1.294,1.294,0,0,0-.646.989,1.272,1.272,0,0,0,.442,1.092,1.755,1.755,0,0,0,.723.334,1.026,1.026,0,0,1,.544.267.568.568,0,0,1,.189.462.588.588,0,0,1-.281.425.636.636,0,0,1-.313.077.609.609,0,0,1-.228-.042.6.6,0,0,1-.337-.386A.367.367,0,0,0-43.3-3695.113Zm6.461-10.256h-11.05V-3713h11.05v7.63Z" transform="translate(287.371 6606.029)"/>
  </g>
</svg>
