<svg xmlns="http://www.w3.org/2000/svg" xmlns:xlink="http://www.w3.org/1999/xlink" width="94.669" height="94.671" viewBox="0 0 94.669 94.671">
  <defs>
    <linearGradient id="linear-gradient" x1="0.933" y1="-0.024" x2="0.09" y2="1.236" gradientUnits="objectBoundingBox">
      <stop offset="0" stop-color="#f08721"/>
      <stop offset="1" stop-color="#ffcd26"/>
    </linearGradient>
  </defs>
  <g id="Grupo_4549" data-name="Grupo 4549" transform="translate(-1021.665 -2862.328)">
    <rect id="Rectángulo_4854" data-name="Rectángulo 4854" width="73.864" height="73.86" rx="13" transform="translate(1091.07 2862.328) rotate(70)" fill="url(#linear-gradient)"/>
    <g id="Grupo_4539" data-name="Grupo 4539" transform="translate(19097 25972)">
      <g id="noun-ecommerce-4422769" transform="translate(-18144.844 -23110.908)">
        <path id="Trazado_14807" data-name="Trazado 14807" d="M133.222,92.734h-4.3a4.321,4.321,0,0,1-.017,1.791l-.1.441h4.412a.377.377,0,0,1,.371.373v21.107h-33.5V95.34a.378.378,0,0,1,.371-.373h4.412l-.5-2.233h-3.91a2.61,2.61,0,0,0-2.606,2.606v23.791a2.609,2.609,0,0,0,2.606,2.606h9.154v1.821h-1.447a1.117,1.117,0,0,0,0,2.235h17.344a1.117,1.117,0,1,0,0-2.235h-1.446v-1.821h9.152a2.61,2.61,0,0,0,2.606-2.606V95.341a2.607,2.607,0,0,0-2.605-2.606Z" transform="translate(0 -59.634)"/>
      </g>
      <g id="noun-settings-2650511" transform="translate(-18106.129 -23085.977)">
        <path id="Trazado_14808" data-name="Trazado 14808" d="M87.055,4.982A1.823,1.823,0,0,0,85.4,3.928a2.529,2.529,0,0,1-1.714-.519,2.5,2.5,0,0,1-.571-1.7A1.821,1.821,0,0,0,82.006.087,1.822,1.822,0,0,0,80.09.51a2.585,2.585,0,0,1-1.58.852,2.489,2.489,0,0,1-1.6-.794A1.826,1.826,0,0,0,74.979.2a1.826,1.826,0,0,0-1.058,1.656A2.529,2.529,0,0,1,73.4,3.568a2.513,2.513,0,0,1-1.7.571,1.833,1.833,0,0,0-1.622,1.109,1.822,1.822,0,0,0,.422,1.916,2.586,2.586,0,0,1,.852,1.579,2.483,2.483,0,0,1-.794,1.6,1.751,1.751,0,0,0,1.288,2.987,2.529,2.529,0,0,1,1.714.519,2.489,2.489,0,0,1,.571,1.7,1.754,1.754,0,0,0,3.025,1.2,1.954,1.954,0,0,1,3.185-.047,1.755,1.755,0,0,0,2.987-1.291,2.529,2.529,0,0,1,.519-1.714,2.484,2.484,0,0,1,1.7-.566,1.756,1.756,0,0,0,1.2-3.029,2.558,2.558,0,0,1-.853-1.58,2.475,2.475,0,0,1,.8-1.6,1.851,1.851,0,0,0,.36-1.937Zm-7.1,6.74a1.8,1.8,0,1,1,.005,0Z" transform="translate(0 0)"/>
      </g>
    </g>
  </g>
</svg>
