<svg xmlns="http://www.w3.org/2000/svg" xmlns:xlink="http://www.w3.org/1999/xlink" width="166" height="166" viewBox="0 0 166 166">
  <defs>
    <filter id="portada-foto-perfil-redes-sociales-consejos-810x540" x="0" y="0" width="166" height="166" filterUnits="userSpaceOnUse">
      <feOffset dy="3" input="SourceAlpha"/>
      <feGaussianBlur stdDeviation="3" result="blur"/>
      <feFlood flood-opacity="0.161"/>
      <feComposite operator="in" in2="blur"/>
      <feComposite in="SourceGraphic"/>
    </filter>
  </defs>
  <g id="Grupo_4886" data-name="Grupo 4886" transform="translate(-360 -2021.879)">
    <g transform="matrix(1, 0, 0, 1, 360, 2021.88)" filter="url(#portada-foto-perfil-redes-sociales-consejos-810x540)">
      <rect id="portada-foto-perfil-redes-sociales-consejos-810x540-2" data-name="portada-foto-perfil-redes-sociales-consejos-810x540" width="148" height="148" rx="16" transform="translate(9 6)" fill="#e2e2e2"/>
    </g>
    <g id="Rect치ngulo_4660" data-name="Rect치ngulo 4660" transform="translate(374 2032.879)" fill="none" stroke="#fff" stroke-width="2">
      <rect width="138" height="138" rx="11" stroke="none"/>
      <rect x="1" y="1" width="136" height="136" rx="10" fill="none"/>
    </g>
    <g id="Grupo_4885" data-name="Grupo 4885" transform="translate(348.753 1928.939)">
      <g id="Grupo_4829" data-name="Grupo 4829" transform="translate(70.595 198.434)">
        <g id="Grupo_4823" data-name="Grupo 4823" transform="translate(15.497)">
          <g id="Grupo_4821" data-name="Grupo 4821" transform="translate(0.44 0.444)">
            <rect id="Rect치ngulo_5063" data-name="Rect치ngulo 5063" width="16.114" height="15.029" fill="#fff"/>
          </g>
          <g id="Grupo_4822" data-name="Grupo 4822">
            <path id="Trazado_14919" data-name="Trazado 14919" d="M88.407,204.578v15.916H105.4V204.578Zm16.111,15.032H89.289V205.461h15.229Z" transform="translate(-88.407 -204.578)"/>
          </g>
        </g>
        <g id="Grupo_4828" data-name="Grupo 4828" transform="translate(0 5.184)">
          <g id="Grupo_4825" data-name="Grupo 4825" transform="translate(0 7.112)">
            <g id="Grupo_4824" data-name="Grupo 4824">
              <path id="Trazado_14920" data-name="Trazado 14920" d="M121.687,229.857a61.065,61.065,0,0,1-13.87,4.6,62.474,62.474,0,0,1-25.37-.111h-.019a61.059,61.059,0,0,1-10.691-3.32C74.4,226.8,79.816,219.4,85.756,218.3h.009a7.309,7.309,0,0,1,.772-.112c.232-.019.465-.036.7-.064.149,0,.288-.02.437-.029l.445-.028a99.876,99.876,0,0,1,12.068-.148c.79-.037,1.822-.057,3.161-.01.139,0,.288.01.446.02.139,0,.288.008.437.018.995.046,2.129.121,3.44.242a8.182,8.182,0,0,1,1.757.354C113.246,219.686,118.294,225.394,121.687,229.857Z" transform="translate(-71.737 -217.805)" fill="#9b9b9b"/>
            </g>
          </g>
          <g id="Grupo_4827" data-name="Grupo 4827" transform="translate(10.898)">
            <g id="Grupo_4826" data-name="Grupo 4826">
              <path id="Trazado_14921" data-name="Trazado 14921" d="M84.935,217.654s24.945,1.7,25.565.155-1.085-3.719-.311-4.183.465-2.944,0-3.254-25.255-.465-25.565.774.775,2.634.465,3.254S81.682,217.654,84.935,217.654Z" transform="translate(-83.46 -210.154)" fill="#b5b5b5"/>
            </g>
          </g>
        </g>
      </g>
      <g id="Grupo_4884" data-name="Grupo 4884" transform="translate(55.505 117.249)">
        <g id="Grupo_4856" data-name="Grupo 4856">
          <g id="Grupo_4843" data-name="Grupo 4843" transform="translate(0 30.247)">
            <g id="Grupo_4836" data-name="Grupo 4836" transform="translate(0 0.001)">
              <g id="Grupo_4833" data-name="Grupo 4833">
                <g id="Grupo_4832" data-name="Grupo 4832">
                  <g id="Grupo_4830" data-name="Grupo 4830" transform="translate(0.442 0.44)">
                    <path id="Trazado_14922" data-name="Trazado 14922" d="M66.578,153.323s-6.2-7.747-9.917,1.394,8.987,10.072,8.987,10.072Z" transform="translate(-55.98 -150.259)" fill="#fff"/>
                  </g>
                  <g id="Grupo_4831" data-name="Grupo 4831">
                    <path id="Trazado_14923" data-name="Trazado 14923" d="M66.886,153.014a7.94,7.94,0,0,0-.614-.679,4.083,4.083,0,0,0-.344-.335.421.421,0,0,0-.065-.064,4.789,4.789,0,0,0-.39-.336,6.439,6.439,0,0,0-.539-.436c-.084-.057-.167-.121-.251-.178a1.277,1.277,0,0,0-.186-.121,4.779,4.779,0,0,0-.418-.26,5.186,5.186,0,0,0-3.31-.781c-1.859.27-3.393,1.85-4.546,4.695-.995,2.436-.958,4.555.121,6.295,1.645,2.649,5.28,3.719,7.474,4.127.158.037.307.065.437.085.084.018.167.027.242.036l.2.028c.5.074.827.1.883.1l.437.038.446-5.532.279-3.412L67,153.153Zm-1.106,4.323-.028.261-.028.445-.511,6.229c-.149-.018-.335-.046-.539-.084a.614.614,0,0,1-.186-.028c-.084-.009-.167-.028-.26-.037-.139-.027-.279-.055-.437-.084-2.064-.418-5.29-1.412-6.693-3.69-.92-1.488-.939-3.337-.056-5.5,1.023-2.538,2.324-3.932,3.858-4.155a3.44,3.44,0,0,1,.446-.037,4.988,4.988,0,0,1,2.668.938,4.461,4.461,0,0,1,.417.3,3.63,3.63,0,0,1,.363.278.475.475,0,0,1,.074.066c.316.259.586.511.8.724.186.2.335.363.428.465Z" transform="translate(-55.505 -149.786)"/>
                  </g>
                </g>
              </g>
              <g id="Grupo_4835" data-name="Grupo 4835" transform="translate(3.408 3.893)">
                <g id="Grupo_4834" data-name="Grupo 4834">
                  <path id="Trazado_14924" data-name="Trazado 14924" d="M66.028,157.923s-3.1-6.352-6.2-2.944,5.733,6.818,5.733,6.818Z" transform="translate(-59.171 -153.974)" fill="#848484"/>
                </g>
              </g>
            </g>
            <g id="Grupo_4842" data-name="Grupo 4842" transform="translate(65.988)">
              <g id="Grupo_4839" data-name="Grupo 4839">
                <g id="Grupo_4837" data-name="Grupo 4837" transform="translate(0.458 0.441)">
                  <path id="Trazado_14925" data-name="Trazado 14925" d="M126.98,153.323s6.2-7.747,9.916,1.394-8.986,10.072-8.986,10.072Z" transform="translate(-126.98 -150.259)" fill="#fff"/>
                </g>
                <g id="Grupo_4838" data-name="Grupo 4838">
                  <path id="Trazado_14926" data-name="Trazado 14926" d="M137.271,154.52c-1.153-2.845-2.687-4.425-4.555-4.695a5.056,5.056,0,0,0-3.105.669c-.167.094-.325.186-.483.288s-.3.2-.438.288c-.148.112-.287.215-.417.316-.1.085-.2.159-.288.243-.251.213-.474.417-.66.6l-.009.01c-.009,0-.009.009-.02.018-.408.4-.659.716-.7.753l-.111.139.2,2.427.26,3.206.53,6.443.437-.038c.037,0,.2-.019.474-.046.121-.02.279-.037.446-.057h.009c.13-.018.27-.046.428-.064,2.11-.363,6.126-1.385,7.874-4.211C138.218,159.075,138.266,156.955,137.271,154.52Zm-7.976,9.594c-.158.029-.307.056-.437.074h-.009c-.159.029-.307.046-.428.066-.046.008-.093.008-.139.018l-.511-6.229-.028-.445-.2-2.445-.139-1.721c.019-.018.037-.046.065-.074.064-.074.149-.158.251-.27.167-.167.372-.371.614-.586.084-.074.158-.149.251-.223a1.89,1.89,0,0,1,.167-.13,3.876,3.876,0,0,1,.437-.335c.139-.1.279-.2.428-.3a4.524,4.524,0,0,1,2.984-.818c1.534.222,2.826,1.617,3.858,4.155.883,2.158.865,4.007-.056,5.5C134.891,162.775,131.312,163.752,129.295,164.114Z" transform="translate(-126.487 -149.785)"/>
                </g>
              </g>
              <g id="Grupo_4841" data-name="Grupo 4841" transform="translate(1.233 3.894)">
                <g id="Grupo_4840" data-name="Grupo 4840">
                  <path id="Trazado_14927" data-name="Trazado 14927" d="M127.813,157.923s3.1-6.352,6.2-2.944-5.733,6.818-5.733,6.818Z" transform="translate(-127.813 -153.974)" fill="#848484"/>
                </g>
              </g>
            </g>
          </g>
          <g id="Grupo_4846" data-name="Grupo 4846" transform="translate(8.276 7.418)">
            <g id="Grupo_4844" data-name="Grupo 4844" transform="translate(0.44 0.443)">
              <path id="Trazado_14928" data-name="Trazado 14928" d="M124.533,161.512c0,19.767-13.354,35.791-29.827,35.791S64.88,181.279,64.88,161.512c0-9.884-.091-23,5.306-29.477s16.284-6.314,24.519-6.314c7.207,0,18.434-.535,23.59,4.571C124.925,136.856,124.533,150.393,124.533,161.512Z" transform="translate(-64.88 -125.705)" fill="#fff"/>
            </g>
            <g id="Grupo_4845" data-name="Grupo 4845">
              <path id="Trazado_14929" data-name="Trazado 14929" d="M124.908,153.554c-.009-.725-.028-1.449-.046-2.175-.019-.427-.037-.864-.046-1.292-.019-.177-.019-.353-.029-.529s-.018-.336-.027-.5c-.428-7.6-1.813-14.781-6.182-19.113-4.862-4.806-14.772-4.75-22.023-4.7-.651.009-1.284.009-1.878.009h-.595c-8.385,0-18.862-.009-24.264,6.47-3.021,3.635-4.36,9.185-4.946,15.153-.065.67-.121,1.33-.167,2.008a4.269,4.269,0,0,0-.028.493c-.019.167-.028.336-.037.5-.074,1.1-.121,2.213-.149,3.31-.065,2.008-.074,3.988-.084,5.913v2.38c0,.28,0,.558.009.837,0,.149.009.3.009.447s.009.307.019.455a41.922,41.922,0,0,0,.911,7.252c3.337,15.645,15.218,27.247,29.321,27.247,14.586,0,26.8-12.429,29.637-28.9a42.724,42.724,0,0,0,.586-5.512c.009-.149.009-.3.019-.456s.009-.3.009-.456c.009-.3.009-.6.009-.911l.009-1.766v-.428C124.945,157.4,124.945,155.48,124.908,153.554ZM94.676,196.829c-15.675,0-28.521-14.846-29.349-33.467,0-.149-.009-.3-.009-.445s-.009-.3-.019-.456c-.01-.324-.01-.66-.01-.985V159.5c0-1.693.01-3.478.057-5.3.028-1.219.074-2.455.149-3.691,0-.074.009-.14.009-.215.009-.112.009-.214.018-.324l.029-.336a1.419,1.419,0,0,1,.009-.2c.456-6.685,1.673-13.239,4.936-17.153,5-6.014,14.856-6.154,22.962-6.154h1.218c.6,0,1.227-.008,1.887-.008,7.093-.046,16.8-.1,21.391,4.453,4.275,4.238,5.569,11.452,5.95,19.085.009.149.019.3.019.438,0,.046.009.083.009.12l.028.558c.009.41.028.828.037,1.236.028.9.037,1.813.046,2.715.028,1.673.019,3.328.019,4.955v1.794c0,.354,0,.707-.009,1.051-.009.148-.009.3-.019.436,0,.158-.009.308-.019.456C123.179,182.012,110.341,196.829,94.676,196.829Z" transform="translate(-64.407 -125.228)"/>
            </g>
          </g>
          <g id="Grupo_4848" data-name="Grupo 4848" transform="translate(8.959 32.047)">
            <g id="Grupo_4847" data-name="Grupo 4847">
              <path id="Trazado_14930" data-name="Trazado 14930" d="M124.484,155.6s.465-3.874-1.085-3.874-2.789,30.678-6.352,30.988c-3.349.291-14.353-5.98-18.756-6.74-3.692-.177-5.367-.077-6.124-.077-3.719,0-15.958,7.128-19.523,6.817s-4.8-30.988-6.352-30.988-1.085,3.874-1.085,3.874c-.465,19.987,1.55,38.58,4.8,44.468,2.679,4.849,19.113,4.759,24.835,4.576,5.721.183,22.155.273,24.835-4.576C122.934,194.176,124.949,175.583,124.484,155.6Z" transform="translate(-65.142 -151.722)"/>
            </g>
          </g>
          <g id="Grupo_4853" data-name="Grupo 4853" transform="translate(29.71 60.789)">
            <g id="Grupo_4850" data-name="Grupo 4850">
              <g id="Grupo_4849" data-name="Grupo 4849">
                <path id="Trazado_14931" data-name="Trazado 14931" d="M105.005,183.512V185.6a8.608,8.608,0,0,1-1.134,4.295A8.768,8.768,0,0,1,87.463,185.6v-2.092a.873.873,0,0,1,.874-.873h15.8A.865.865,0,0,1,105.005,183.512Z" transform="translate(-87.463 -182.639)" fill="#757575"/>
              </g>
            </g>
            <g id="Grupo_4852" data-name="Grupo 4852" transform="translate(1.264 4.183)">
              <g id="Grupo_4851" data-name="Grupo 4851">
                <path id="Trazado_14932" data-name="Trazado 14932" d="M103.967,190.215a8.751,8.751,0,0,1-15.144.232,10.58,10.58,0,0,1,15.144-.232Z" transform="translate(-88.823 -187.139)" fill="#9b9b9b"/>
              </g>
            </g>
          </g>
          <g id="Grupo_4855" data-name="Grupo 4855" transform="translate(8.633)">
            <g id="Grupo_4854" data-name="Grupo 4854">
              <path id="Trazado_14933" data-name="Trazado 14933" d="M65.067,148.174s1.859,4.3,3.486-.116-4.3-17.9,16.153-19.755,32.073-2.44,35.21,10.458,3.719,13.945,5.113,11.853-3.254-27.657-7.437-30.562-44.855-6.043-49.5,4.532S65.067,148.174,65.067,148.174Z" transform="translate(-64.791 -117.249)"/>
            </g>
          </g>
        </g>
        <g id="Grupo_4883" data-name="Grupo 4883" transform="translate(10.033 21.813)">
          <g id="Grupo_4875" data-name="Grupo 4875" transform="translate(6.43)">
            <g id="Grupo_4861" data-name="Grupo 4861" transform="translate(2.626)">
              <g id="Grupo_4858" data-name="Grupo 4858" transform="translate(29.439)">
                <g id="Grupo_4857" data-name="Grupo 4857">
                  <path id="Trazado_14934" data-name="Trazado 14934" d="M118.559,147.384s-10.536-2.015-10.691-2.944-.465-3.563.62-3.719,11.31,1.859,11.465,2.479S119.643,147.694,118.559,147.384Z" transform="translate(-107.705 -140.713)"/>
                </g>
              </g>
              <g id="Grupo_4860" data-name="Grupo 4860">
                <g id="Grupo_4859" data-name="Grupo 4859">
                  <path id="Trazado_14935" data-name="Trazado 14935" d="M77.461,147.384S88,145.37,88.152,144.44s.465-3.563-.619-3.719-11.311,1.859-11.466,2.479S76.377,147.694,77.461,147.384Z" transform="translate(-76.038 -140.713)"/>
                </g>
              </g>
            </g>
            <g id="Grupo_4874" data-name="Grupo 4874" transform="translate(0 8.48)">
              <g id="Grupo_4866" data-name="Grupo 4866" transform="translate(8.057 2.219)">
                <g id="Grupo_4863" data-name="Grupo 4863">
                  <g id="Grupo_4862" data-name="Grupo 4862">
                    <path id="Trazado_14936" data-name="Trazado 14936" d="M85.6,155.631c0,1.883-.833,3.408-1.859,3.408s-1.859-1.526-1.859-3.408.832-3.409,1.859-3.409S85.6,153.748,85.6,155.631Z" transform="translate(-81.88 -152.222)"/>
                  </g>
                </g>
                <g id="Grupo_4865" data-name="Grupo 4865" transform="translate(25.256)">
                  <g id="Grupo_4864" data-name="Grupo 4864">
                    <path id="Trazado_14937" data-name="Trazado 14937" d="M112.766,155.631c0,1.883-.833,3.408-1.859,3.408s-1.859-1.526-1.859-3.408.832-3.409,1.859-3.409S112.766,153.748,112.766,155.631Z" transform="translate(-109.047 -152.222)"/>
                  </g>
                </g>
              </g>
              <g id="Grupo_4873" data-name="Grupo 4873">
                <g id="Grupo_4868" data-name="Grupo 4868" transform="translate(17.933)">
                  <g id="Grupo_4867" data-name="Grupo 4867">
                    <path id="Trazado_14938" data-name="Trazado 14938" d="M97.346,150.969s1.7,16.424.155,17.819-6.6.4-4.493,4.339c1.239,2.324,7.127,1.239,5.887.465s-5.423-.465-4.493-1.859,4.648-1.085,4.958-2.944S99.051,144.617,97.346,150.969Z" transform="translate(-92.503 -149.835)"/>
                  </g>
                </g>
                <g id="Grupo_4870" data-name="Grupo 4870" transform="translate(37.341 10.586)">
                  <g id="Grupo_4869" data-name="Grupo 4869">
                    <circle id="Elipse_612" data-name="Elipse 612" cx="4.183" cy="4.183" r="4.183" fill="#b5b5b5"/>
                  </g>
                </g>
                <g id="Grupo_4872" data-name="Grupo 4872" transform="translate(0 10.586)">
                  <g id="Grupo_4871" data-name="Grupo 4871">
                    <circle id="Elipse_613" data-name="Elipse 613" cx="4.183" cy="4.183" r="4.183" fill="#b5b5b5"/>
                  </g>
                </g>
              </g>
            </g>
          </g>
          <g id="Grupo_4882" data-name="Grupo 4882" transform="translate(0 0.237)">
            <g id="Grupo_4877" data-name="Grupo 4877">
              <g id="Grupo_4876" data-name="Grupo 4876">
                <path id="Trazado_14939" data-name="Trazado 14939" d="M92.727,152.914a13.224,13.224,0,0,0-5.15-9.221,12.983,12.983,0,0,0-4.983-2.362,12.726,12.726,0,0,0-3.049-.363,13.291,13.291,0,0,0-12.913,10.291.122.122,0,0,0-.009.057c-.028.092-.046.185-.065.279-.019.074-.028.157-.046.232-.028.176-.056.344-.084.52a13.815,13.815,0,0,0-.13,1.869,13.027,13.027,0,0,0,.242,2.5,12.791,12.791,0,0,0,.325,1.34c.112.353.223.687.363,1.022a12.8,12.8,0,0,0,.93,1.9,13.3,13.3,0,0,0,5,4.843,13.06,13.06,0,0,0,6.071,1.636c.1.009.214.009.316.009a13.26,13.26,0,0,0,13.108-11.332,12.989,12.989,0,0,0,.139-1.915A12.08,12.08,0,0,0,92.727,152.914ZM81.05,164.563a10.077,10.077,0,0,1-1.506.111A10.456,10.456,0,0,1,75.435,144.6a10.281,10.281,0,0,1,4.109-.846,10.458,10.458,0,0,1,1.506,20.806Z" transform="translate(-66.297 -140.968)"/>
              </g>
            </g>
            <g id="Grupo_4879" data-name="Grupo 4879" transform="translate(30.52)">
              <g id="Grupo_4878" data-name="Grupo 4878">
                <path id="Trazado_14940" data-name="Trazado 14940" d="M125.538,152.737c-.019-.185-.046-.381-.074-.566-.028-.168-.056-.326-.084-.494-.01-.008-.01-.028-.01-.037a.9.9,0,0,0-.036-.158,12.828,12.828,0,0,0-.827-2.575,13.257,13.257,0,0,0-12.132-7.939,13.909,13.909,0,0,0-1.664.1,12.9,12.9,0,0,0-3.579.986A13.288,13.288,0,0,0,99.248,152.4c-.009.1-.028.2-.037.3a13.668,13.668,0,0,0-.084,1.515,13.233,13.233,0,0,0,.1,1.618,12.163,12.163,0,0,0,.456,2.186,13.273,13.273,0,0,0,14.419,9.334,13.373,13.373,0,0,0,9.966-6.917,12.806,12.806,0,0,0,.948-2.268,12.375,12.375,0,0,0,.344-1.31,12.807,12.807,0,0,0,.251-2.324c.009-.1.009-.215.009-.317A12.912,12.912,0,0,0,125.538,152.737Zm-5.643,8.73a10.358,10.358,0,0,1-7.465,3.206h-.056a10.459,10.459,0,0,1,0-20.917,10.448,10.448,0,0,1,7.521,17.711Z" transform="translate(-99.127 -140.968)"/>
              </g>
            </g>
            <g id="Grupo_4881" data-name="Grupo 4881" transform="translate(24.237 11.45)">
              <g id="Grupo_4880" data-name="Grupo 4880">
                <path id="Trazado_14941" data-name="Trazado 14941" d="M94.251,157.2l-1.883-2.057c1.6-1.465,5.517-3.339,8.9.043L99.3,157.156C96.977,154.837,94.523,156.951,94.251,157.2Z" transform="translate(-92.368 -153.284)"/>
              </g>
            </g>
          </g>
        </g>
      </g>
    </g>
  </g>
</svg>
