<svg xmlns="http://www.w3.org/2000/svg" width="29.391" height="27.887" viewBox="0 0 29.391 27.887">
  <path id="Trazado_14945" data-name="Trazado 14945" d="M525.343,234.983a.971.971,0,0,0-.549-1.648l-8.243-1.648a1.171,1.171,0,0,1-.687-.412l-4.122-7.281a1.127,1.127,0,0,0-.824-.549.853.853,0,0,0-.824.549l-4.122,7.281a.755.755,0,0,1-.687.412l-8.243,1.648a1.016,1.016,0,0,0-.549,1.648l5.77,6.182a1.958,1.958,0,0,1,.275.824l-.962,8.243a.974.974,0,0,0,.962,1.1.505.505,0,0,0,.412-.137l7.556-3.572c.137,0,.275-.137.412-.137a.505.505,0,0,1,.412.137l7.556,3.572c.137,0,.275.137.412.137a.98.98,0,0,0,.962-1.1l-.962-8.243a1.008,1.008,0,0,1,.275-.824Zm-7.556,4.4a3.582,3.582,0,0,0-.962,2.747l.687,5.495-4.945-2.334a2.716,2.716,0,0,0-1.511-.275,5.818,5.818,0,0,0-1.511.275l-4.946,2.335.687-5.495a3.414,3.414,0,0,0-.962-2.747l-3.709-3.984,5.358-1.1a3.1,3.1,0,0,0,2.335-1.786l2.747-4.809,2.747,4.809a3.767,3.767,0,0,0,2.335,1.786l5.358,1.1Z" transform="translate(-496.238 -223.444)" fill="#efd61a"/>
</svg>
