<svg xmlns="http://www.w3.org/2000/svg" width="29.408" height="27.652" viewBox="0 0 29.408 27.652">
  <path id="Trazado_14946" data-name="Trazado 14946" d="M111.512,233.438l-8.243-1.648a1.171,1.171,0,0,1-.687-.412L98.46,224.1a.916.916,0,0,0-1.648,0l-4.122,7.281a.755.755,0,0,1-.687.412l-8.243,1.648a1.016,1.016,0,0,0-.549,1.648l5.77,6.182c.413.137.413.412.413.687l-.962,8.243a.98.98,0,0,0,1.374.962l7.556-3.572a.877.877,0,0,1,.824,0l7.556,3.572a.979.979,0,0,0,1.374-.962l-.962-8.243a1.008,1.008,0,0,1,.275-.824l5.77-6.182C112.611,234.536,112.2,233.575,111.512,233.438Z" transform="translate(-82.956 -223.581)" fill="#efd61a"/>
</svg>
